<svg id="Layer_1" xmlns="http://www.w3.org/2000/svg" viewBox="0 0 230.1 63.1"><style>.st0{fill-rule:evenodd;clip-rule:evenodd}.st0,.st1{fill:#fff}</style><path class="st0" d="M43.1 46.9v.7c0 .1 0 .1.1.1h.6c.1 0 .1-.1.1-.1v-.7c0-.1 0-.1-.1-.1h-.6s-.1 0-.1.1m-2.5 1.6v.7c0 .1 0 .1.1.1h.6c.1 0 .1-.1.1-.1v-.7c0-.1 0-.1-.1-.1h-.6l-.1.1zm0-1.6v.7c0 .1 0 .1.1.1h.6c.1 0 .1-.1.1-.1v-.7c0-.1 0-.1-.1-.1h-.6s-.1 0-.1.1zm-2.5-6.5v.7c0 .1 0 .1.1.1h.6c.1 0 .1-.1.1-.1v-.7c0-.1 0-.1-.1-.1h-.6l-.1.1zm0-3.2v.7c0 .1 0 .1.1.1h.6c.1 0 .1-.1.1-.1v-.7c0-.1 0-.1-.1-.1h-.6c0-.1-.1 0-.1.1zm6.3 0v.7c0 .1 0 .1.1.1h.5c.1 0 .1-.1.1-.1v-.7c0-.1 0-.1-.1-.1h-.6v.1zm0-1.6v.7c0 .1 0 .1.1.1h.5c.1 0 .1-.1.1-.1v-.7c0-.1 0-.1-.1-.1h-.6v.1zm0-3.3v.7c0 .1 0 .1.1.1h.5c.1 0 .1-.1.1-.1v-.7c0-.1 0-.1-.1-.1h-.6v.1zm0 1.6v.7c0 .1 0 .1.1.1h.5c.1 0 .1-.1.1-.1v-.7c0-.1 0-.1-.1-.1h-.6v.1zm0-3.2v.7c0 .1 0 .1.1.1h.5c.1 0 .1-.1.1-.1v-.7c0-.1 0-.1-.1-.1h-.6v.1zm0-1.6v.7c0 .1 0 .1.1.1h.5c.1 0 .1-.1.1-.1v-.7c0-.1 0-.1-.1-.1h-.6v.1zm0-1.6v.7c0 .1 0 .1.1.1h.5c.1 0 .1-.1.1-.1v-.7c0-.1 0-.1-.1-.1h-.6v.1zm0-1.7v.7c0 .1 0 .1.1.1h.5c.1 0 .1-.1.1-.1v-.7c0-.1 0-.1-.1-.1h-.6v.1zm0-1.6v.7c0 .1 0 .1.1.1h.5c.1 0 .1-.1.1-.1v-.7c0-.1 0-.1-.1-.1h-.6v.1zm0-1.6v.7c0 .1 0 .1.1.1h.5c.1 0 .1-.1.1-.1v-.7c0-.1 0-.1-.1-.1h-.6v.1zm0-1.6v.7c0 .1 0 .1.1.1h.5c.1 0 .1-.1.1-.1V21c0-.1 0-.1-.1-.1h-.6v.1zm0-1.7v.7c0 .1 0 .1.1.1h.5c.1 0 .1-.1.1-.1v-.7c0-.1 0-.1-.1-.1h-.6v.1zm0-1.6v.7c0 .1 0 .1.1.1h.5c.1 0 .1-.1.1-.1v-.7c0-.1 0-.1-.1-.1h-.6v.1zm0-1.6v.7c0 .1 0 .1.1.1h.5c.1 0 .1-.1.1-.1v-.7c0-.1 0-.1-.1-.1h-.6v.1zm0-1.6v.7c0 .1 0 .1.1.1h.6c.1 0 .1-.1.1-.1v-.7c0-.1 0-.1-.1-.1h-.6c-.1-.1-.1 0-.1.1zm0-1.6v.7c0 .1 0 .1.1.1h.5c.1 0 .1-.1.1-.1v-.7c0-.1 0-.1-.1-.1h-.6v.1zm0-1.7v.7c0 .1 0 .1.1.1h.5c.1 0 .1-.1.1-.1v-.7c0-.1 0-.1-.1-.1h-.6v.1zm-1.3 26v.7c0 .1 0 .1.1.1h.6c.1 0 .1-.1.1-.1v-.7c0-.1 0-.1-.1-.1h-.6c0-.1-.1 0-.1.1zm0 1.6v.7c0 .1 0 .1.1.1h.6c.1 0 .1-.1.1-.1v-.7c0-.1 0-.1-.1-.1h-.6s-.1 0-.1.1zm0-3.2v.7c0 .1 0 .1.1.1h.6c.1 0 .1-.1.1-.1v-.7c0-.1 0-.1-.1-.1h-.6c0-.1-.1 0-.1.1zm0 8.1v.7c0 .1 0 .1.1.1h.6c.1 0 .1-.1.1-.1v-.7c0-.1 0-.1-.1-.1h-.6c0-.1-.1 0-.1.1zm0-13v.7c0 .1 0 .1.1.1h.6c.1 0 .1-.1.1-.1v-.7c0-.1 0-.1-.1-.1h-.6s-.1 0-.1.1zm0-1.6v.7c0 .1 0 .1.1.1h.6c.1 0 .1-.1.1-.1v-.7c0-.1 0-.1-.1-.1h-.6c0-.1-.1 0-.1.1zm0-1.6v.7c0 .1 0 .1.1.1h.6c.1 0 .1-.1.1-.1v-.7c0-.1 0-.1-.1-.1h-.6c0-.1-.1 0-.1.1zm0-1.7v.7c0 .1 0 .1.1.1h.6c.1 0 .1-.1.1-.1v-.7c0-.1 0-.1-.1-.1h-.6l-.1.1zm0-1.6v.7c0 .1 0 .1.1.1h.6c.1 0 .1-.1.1-.1v-.7c0-.1 0-.1-.1-.1h-.6s-.1 0-.1.1zm0-1.6v.7c0 .1 0 .1.1.1h.6c.1 0 .1-.1.1-.1v-.7c0-.1 0-.1-.1-.1h-.6s-.1 0-.1.1zm0-1.6v.7c0 .1 0 .1.1.1h.6c.1 0 .1-.1.1-.1V21c0-.1 0-.1-.1-.1h-.6c0-.1-.1 0-.1.1zm0-1.7v.7c0 .1 0 .1.1.1h.6c.1 0 .1-.1.1-.1v-.7c0-.1 0-.1-.1-.1h-.6l-.1.1zm0-1.6v.7c0 .1 0 .1.1.1h.6c.1 0 .1-.1.1-.1v-.7c0-.1 0-.1-.1-.1h-.6l-.1.1zm0-1.6v.7c0 .1 0 .1.1.1h.6c.1 0 .1-.1.1-.1v-.7c0-.1 0-.1-.1-.1h-.6s-.1 0-.1.1zm0-1.6v.7c0 .1 0 .1.1.1h.6c.1 0 .1-.1.1-.1v-.7c0-.1 0-.1-.1-.1h-.6c0-.1-.1 0-.1.1zm0-1.6v.7c0 .1 0 .1.1.1h.6c.1 0 .1-.1.1-.1v-.7c0-.1 0-.1-.1-.1h-.6c0-.1-.1 0-.1.1zm-1.2 25.9v.7c0 .1 0 .1.1.1h.6c.1 0 .1-.1.1-.1v-.7c0-.1 0-.1-.1-.1H42c-.1 0-.1 0-.1.1zm0-3.2v.7c0 .1 0 .1.1.1h.6c.1 0 .1-.1.1-.1v-.7c0-.1 0-.1-.1-.1H42c-.1-.1-.1 0-.1.1zm0-3.3v.7c0 .1 0 .1.1.1h.6c.1 0 .1-.1.1-.1v-.7c0-.1 0-.1-.1-.1H42c-.1 0-.1.1-.1.1zm0-22.7v.7c0 .1 0 .1.1.1h.6c.1 0 .1-.1.1-.1v-.7c0-.1 0-.1-.1-.1H42c-.1 0-.1.1-.1.1zm0 24.3v.7c0 .1 0 .1.1.1h.6c.1 0 .1-.1.1-.1v-.7c0-.1 0-.1-.1-.1H42c-.1 0-.1.1-.1.1zm0-4.8v.7c0 .1 0 .1.1.1h.6c.1 0 .1-.1.1-.1v-.7c0-.1 0-.1-.1-.1H42c-.1-.1-.1 0-.1.1zm0-1.6v.7c0 .1 0 .1.1.1h.6c.1 0 .1-.1.1-.1v-.7c0-.1 0-.1-.1-.1H42c-.1-.1-.1 0-.1.1zm0-1.7v.7c0 .1 0 .1.1.1h.6c.1 0 .1-.1.1-.1v-.7c0-.1 0-.1-.1-.1H42c-.1 0-.1.1-.1.1zm0-3.2v.7c0 .1 0 .1.1.1h.6c.1 0 .1-.1.1-.1v-.7c0-.1 0-.1-.1-.1H42c-.1 0-.1 0-.1.1zm0-1.6v.7c0 .1 0 .1.1.1h.6c.1 0 .1-.1.1-.1V21c0-.1 0-.1-.1-.1H42c-.1-.1-.1 0-.1.1zm0-1.7v.7c0 .1 0 .1.1.1h.6c.1 0 .1-.1.1-.1v-.7c0-.1 0-.1-.1-.1H42c-.1 0-.1.1-.1.1zm0-4.8v.7c0 .1 0 .1.1.1h.6c.1 0 .1-.1.1-.1v-.7c0-.1 0-.1-.1-.1H42c-.1-.1-.1 0-.1.1zm0-1.6v.7c0 .1 0 .1.1.1h.6c.1 0 .1-.1.1-.1v-.7c0-.1 0-.1-.1-.1H42c-.1-.1-.1 0-.1.1zm0-1.7v.7c0 .1 0 .1.1.1h.6c.1 0 .1-.1.1-.1v-.7c0-.1 0-.1-.1-.1H42c-.1 0-.1.1-.1.1zm-1.3 26v.7c0 .1 0 .1.1.1h.6c.1 0 .1-.1.1-.1v-.7c0-.1 0-.1-.1-.1h-.6c0-.1-.1 0-.1.1zm0 8.1v.7c0 .1 0 .1.1.1h.6c.1 0 .1-.1.1-.1v-.7c0-.1 0-.1-.1-.1h-.6c0-.1-.1 0-.1.1zm0-6.5v.7c0 .1 0 .1.1.1h.6c.1 0 .1-.1.1-.1v-.7c0-.1 0-.1-.1-.1h-.6s-.1 0-.1.1zm0-6.5v.7c0 .1 0 .1.1.1h.6c.1 0 .1-.1.1-.1v-.7c0-.1 0-.1-.1-.1h-.6l-.1.1zm0-22.7v.7c0 .1 0 .1.1.1h.6c.1 0 .1-.1.1-.1v-.7c0-.1 0-.1-.1-.1h-.6l-.1.1zm0 30.8v.7c0 .1 0 .1.1.1h.6c.1 0 .1-.1.1-.1v-.7c0-.1 0-.1-.1-.1h-.6l-.1.1zm0-6.5v.7c0 .1 0 .1.1.1h.6c.1 0 .1-.1.1-.1v-.7c0-.1 0-.1-.1-.1h-.6l-.1.1zm0-3.2v.7c0 .1 0 .1.1.1h.6c.1 0 .1-.1.1-.1v-.7c0-.1 0-.1-.1-.1h-.6s-.1 0-.1.1zm0-1.6v.7c0 .1 0 .1.1.1h.6c.1 0 .1-.1.1-.1v-.7c0-.1 0-.1-.1-.1h-.6c0-.1-.1 0-.1.1zm0-1.6v.7c0 .1 0 .1.1.1h.6c.1 0 .1-.1.1-.1v-.7c0-.1 0-.1-.1-.1h-.6c0-.1-.1 0-.1.1zm0-1.7v.7c0 .1 0 .1.1.1h.6c.1 0 .1-.1.1-.1v-.7c0-.1 0-.1-.1-.1h-.6l-.1.1zm0-1.6v.7c0 .1 0 .1.1.1h.6c.1 0 .1-.1.1-.1v-.7c0-.1 0-.1-.1-.1h-.6s-.1 0-.1.1zm0-1.6v.7c0 .1 0 .1.1.1h.6c.1 0 .1-.1.1-.1v-.7c0-.1 0-.1-.1-.1h-.6s-.1 0-.1.1zm0-1.6v.7c0 .1 0 .1.1.1h.6c.1 0 .1-.1.1-.1V21c0-.1 0-.1-.1-.1h-.6c0-.1-.1 0-.1.1zm0-3.3v.7c0 .1 0 .1.1.1h.6c.1 0 .1-.1.1-.1v-.7c0-.1 0-.1-.1-.1h-.6l-.1.1zm0-1.6v.7c0 .1 0 .1.1.1h.6c.1 0 .1-.1.1-.1v-.7c0-.1 0-.1-.1-.1h-.6s-.1 0-.1.1zm0-1.6v.7c0 .1 0 .1.1.1h.6c.1 0 .1-.1.1-.1v-.7c0-.1 0-.1-.1-.1h-.6c0-.1-.1 0-.1.1zm0-1.6v.7c0 .1 0 .1.1.1h.6c.1 0 .1-.1.1-.1v-.7c0-.1 0-.1-.1-.1h-.6c0-.1-.1 0-.1.1zm0-1.7v.7c0 .1 0 .1.1.1h.6c.1 0 .1-.1.1-.1v-.7c0-.1 0-.1-.1-.1h-.6l-.1.1zm-1.2 27.6v.7c0 .1 0 .1.1.1h.5c.1 0 .1-.1.1-.1v-.7c0-.1 0-.1-.1-.1h-.6v.1zm0-3.2v.7c0 .1 0 .1.1.1h.5c.1 0 .1-.1.1-.1v-.7c0-.1 0-.1-.1-.1h-.6v.1zm0-3.3v.7c0 .1 0 .1.1.1h.5c.1 0 .1-.1.1-.1v-.7c0-.1 0-.1-.1-.1h-.6v.1zm0 1.6v.7c0 .1 0 .1.1.1h.5c.1 0 .1-.1.1-.1v-.7c0-.1 0-.1-.1-.1h-.6v.1zm0-3.2v.7c0 .1 0 .1.1.1h.5c.1 0 .1-.1.1-.1v-.7c0-.1 0-.1-.1-.1h-.6v.1zm0-1.6v.7c0 .1 0 .1.1.1h.5c.1 0 .1-.1.1-.1v-.7c0-.1 0-.1-.1-.1h-.6v.1zm0-4.9v.7c0 .1 0 .1.1.1h.5c.1 0 .1-.1.1-.1v-.7c0-.1 0-.1-.1-.1h-.6v.1zm0-1.6v.7c0 .1 0 .1.1.1h.5c.1 0 .1-.1.1-.1v-.7c0-.1 0-.1-.1-.1h-.6v.1zm0-1.6v.7c0 .1 0 .1.1.1h.5c.1 0 .1-.1.1-.1V21c0-.1 0-.1-.1-.1h-.6v.1zm0-1.7v.7c0 .1 0 .1.1.1h.5c.1 0 .1-.1.1-.1v-.7c0-.1 0-.1-.1-.1h-.6v.1zm0-1.6v.7c0 .1 0 .1.1.1h.5c.1 0 .1-.1.1-.1v-.7c0-.1 0-.1-.1-.1h-.6v.1zm0-1.6v.7c0 .1 0 .1.1.1h.5c.1 0 .1-.1.1-.1v-.7c0-.1 0-.1-.1-.1h-.6v.1zm0-1.6v.7c0 .1 0 .1.1.1h.6c.1 0 .1-.1.1-.1v-.7c0-.1 0-.1-.1-.1h-.6c-.1-.1-.1 0-.1.1zm0-1.6v.7c0 .1 0 .1.1.1h.5c.1 0 .1-.1.1-.1v-.7c0-.1 0-.1-.1-.1h-.6v.1zm0-1.7v.7c0 .1 0 .1.1.1h.5c.1 0 .1-.1.1-.1v-.7c0-.1 0-.1-.1-.1h-.6v.1zm-1.3 0v.7c0 .1 0 .1.1.1h.6c.1 0 .1-.1.1-.1v-.7c0-.1 0-.1-.1-.1h-.6l-.1.1zm0 1.7v.7c0 .1 0 .1.1.1h.6c.1 0 .1-.1.1-.1v-.7c0-.1 0-.1-.1-.1h-.6c0-.1-.1 0-.1.1zm0 1.6v.7c0 .1 0 .1.1.1h.6c.1 0 .1-.1.1-.1v-.7c0-.1 0-.1-.1-.1h-.6c0-.1-.1 0-.1.1zm0 1.6v.7c0 .1 0 .1.1.1h.6c.1 0 .1-.1.1-.1v-.7c0-.1 0-.1-.1-.1h-.6s-.1 0-.1.1zm0 1.6v.7c0 .1 0 .1.1.1h.6c.1 0 .1-.1.1-.1v-.7c0-.1 0-.1-.1-.1h-.6l-.1.1zm0 1.6v.7c0 .1 0 .1.1.1h.6c.1 0 .1-.1.1-.1v-.7c0-.1 0-.1-.1-.1h-.6l-.1.1zm0 1.7v.7c0 .1 0 .1.1.1h.6c.1 0 .1-.1.1-.1V21c0-.1 0-.1-.1-.1h-.6c0-.1-.1 0-.1.1zm0 1.6v.7c0 .1 0 .1.1.1h.6c.1 0 .1-.1.1-.1v-.7c0-.1 0-.1-.1-.1h-.6s-.1 0-.1.1zm0 1.6v.7c0 .1 0 .1.1.1h.6c.1 0 .1-.1.1-.1v-.7c0-.1 0-.1-.1-.1h-.6s-.1 0-.1.1zm0 1.6v.7c0 .1 0 .1.1.1h.6c.1 0 .1-.1.1-.1v-.7c0-.1 0-.1-.1-.1h-.6l-.1.1zm0 1.7v.7c0 .1 0 .1.1.1h.6c.1 0 .1-.1.1-.1v-.7c0-.1 0-.1-.1-.1h-.6c0-.1-.1 0-.1.1zm0 1.6v.7c0 .1 0 .1.1.1h.6c.1 0 .1-.1.1-.1v-.7c0-.1 0-.1-.1-.1h-.6c0-.1-.1 0-.1.1zm0 4.8v.7c0 .1 0 .1.1.1h.6c.1 0 .1-.1.1-.1v-.7c0-.1 0-.1-.1-.1h-.6l-.1.1zm0-24.3v.7c0 .1 0 .1.1.1h.6c.1 0 .1-.1.1-.1v-.7c0-.1 0-.1-.1-.1h-.6l-.1.1zm0 26v.7c0 .1 0 .1.1.1h.6c.1 0 .1-.1.1-.1v-.7c0-.1 0-.1-.1-.1h-.6c0-.1-.1 0-.1.1zm0 3.2v.7c0 .1 0 .1.1.1h.6c.1 0 .1-.1.1-.1v-.7c0-.1 0-.1-.1-.1h-.6s-.1 0-.1.1zM49.4 50.7v.6c0 .1 0 .1.1.1h.7c.1 0 .1-.1.1-.1v-.6c0-.1 0-.1-.1-.1h-.7s-.1 0-.1.1m0-2.8v.6c0 .1 0 .1.1.1h.7c.1 0 .1-.1.1-.1v-.6c0-.1 0-.1-.1-.1h-.7s-.1 0-.1.1zm-2.9-8.4v.6c0 .1 0 .1.1.1h.7c.1 0 .1-.1.1-.1v-.6c0-.1 0-.1-.1-.1h-.7c-.1 0-.1 0-.1.1zm7.3 0v.6c0 .1 0 .1.1.1h.7c.1 0 .1-.1.1-.1v-.6c0-.1 0-.1-.1-.1h-.7c-.1 0-.1 0-.1.1zm0-4.2v.6c0 .1 0 .1.1.1h.7c.1 0 .1-.1.1-.1v-.6c0-.1 0-.1-.1-.1h-.7c-.1 0-.1 0-.1.1zm0 1.4v.6c0 .1 0 .1.1.1h.7c.1 0 .1-.1.1-.1v-.6c0-.1 0-.1-.1-.1h-.7c-.1 0-.1 0-.1.1zm0-2.8v.6c0 .1 0 .1.1.1h.7c.1 0 .1-.1.1-.1v-.6c0-.1 0-.1-.1-.1h-.7c-.1 0-.1 0-.1.1zm0-1.4v.6c0 .1 0 .1.1.1h.7c.1 0 .1-.1.1-.1v-.6c0-.1 0-.1-.1-.1h-.7c-.1 0-.1 0-.1.1zm0-2.8v.6c0 .1 0 .1.1.1h.7c.1 0 .1-.1.1-.1v-.6c0-.1 0-.1-.1-.1h-.7c-.1 0-.1 0-.1.1zm0-1.4v.6c0 .1 0 .1.1.1h.7c.1 0 .1-.1.1-.1v-.6c0-.1 0-.1-.1-.1h-.7c-.1 0-.1 0-.1.1zm0-1.4v.6c0 .1 0 .1.1.1h.7c.1 0 .1-.1.1-.1v-.6c0-.1 0-.1-.1-.1h-.7c-.1 0-.1 0-.1.1zm0-1.4v.6c0 .1 0 .1.1.1h.7c.1 0 .1-.1.1-.1v-.6c0-.1 0-.1-.1-.1h-.7c-.1 0-.1 0-.1.1zm0-1.4v.6c0 .1 0 .1.1.1h.7c.1 0 .1-.1.1-.1v-.6c0-.1 0-.1-.1-.1h-.7c-.1 0-.1 0-.1.1zm0-1.4v.6c0 .1 0 .1.1.1h.7c.1 0 .1-.1.1-.1v-.6c0-.1 0-.1-.1-.1h-.7c-.1 0-.1 0-.1.1zm0-1.4v.6c0 .1 0 .1.1.1h.7c.1 0 .1-.1.1-.1v-.6c0-.1 0-.1-.1-.1h-.7c-.1 0-.1 0-.1.1zm-1.5 25.2v.6c0 .1 0 .1.1.1h.7c.1 0 .1-.1.1-.1v-.6c0-.1 0-.1-.1-.1h-.7s-.1 0-.1.1zm0-5.6v.6c0 .1 0 .1.1.1h.7c.1 0 .1-.1.1-.1v-.6c0-.1 0-.1-.1-.1h-.7s-.1 0-.1.1zm0-2.8v.6c0 .1 0 .1.1.1h.7c.1 0 .1-.1.1-.1v-.6c0-.1 0-.1-.1-.1h-.7s-.1 0-.1.1zm0-2.8v.6c0 .1 0 .1.1.1h.7c.1 0 .1-.1.1-.1v-.6c0-.1 0-.1-.1-.1h-.7s-.1 0-.1.1zm0 7v.6c0 .1 0 .1.1.1h.7c.1 0 .1-.1.1-.1v-.6c0-.1 0-.1-.1-.1h-.7s-.1 0-.1.1zm0-5.6v.6c0 .1 0 .1.1.1h.7c.1 0 .1-.1.1-.1v-.6c0-.1 0-.1-.1-.1h-.7s-.1 0-.1.1zm0-4.2v.6c0 .1 0 .1.1.1h.7c.1 0 .1-.1.1-.1v-.6c0-.1 0-.1-.1-.1h-.7s-.1 0-.1.1zm0-1.4v.6c0 .1 0 .1.1.1h.7c.1 0 .1-.1.1-.1v-.6c0-.1 0-.1-.1-.1h-.7s-.1 0-.1.1zm0-1.4v.6c0 .1 0 .1.1.1h.7c.1 0 .1-.1.1-.1v-.6c0-.1 0-.1-.1-.1h-.7s-.1 0-.1.1zm0-2.8v.6c0 .1 0 .1.1.1h.7c.1 0 .1-.1.1-.1v-.6c0-.1 0-.1-.1-.1h-.7s-.1 0-.1.1zm0-2.8v.6c0 .1 0 .1.1.1h.7c.1 0 .1-.1.1-.1v-.6c0-.1 0-.1-.1-.1h-.7s-.1 0-.1.1zm0-1.4v.6c0 .1 0 .1.1.1h.7c.1 0 .1-.1.1-.1v-.6c0-.1 0-.1-.1-.1h-.7s-.1 0-.1.1zm0-1.4v.6c0 .1 0 .1.1.1h.7c.1 0 .1-.1.1-.1v-.6c0-.1 0-.1-.1-.1h-.7s-.1 0-.1.1zm0-1.4v.6c0 .1 0 .1.1.1h.7c.1 0 .1-.1.1-.1v-.6c0-.1 0-.1-.1-.1h-.7s-.1 0-.1.1zm-1.4 19.6v.6c0 .1 0 .1.1.1h.7c.1 0 .1-.1.1-.1v-.6c0-.1 0-.1-.1-.1H51c-.1 0-.1 0-.1.1zm0 1.4v.6c0 .1 0 .1.1.1h.7c.1 0 .1-.1.1-.1v-.6c0-.1 0-.1-.1-.1H51c-.1 0-.1 0-.1.1zm0-5.6v.6c0 .1 0 .1.1.1h.7c.1 0 .1-.1.1-.1v-.6c0-.1 0-.1-.1-.1H51c-.1 0-.1 0-.1.1zm0-19.6v.6c0 .1 0 .1.1.1h.7c.1 0 .1-.1.1-.1v-.6c0-.1 0-.1-.1-.1H51c-.1 0-.1 0-.1.1zm0 29.4v.6c0 .1 0 .1.1.1h.7c.1 0 .1-.1.1-.1v-.6c0-.1 0-.1-.1-.1H51c-.1 0-.1 0-.1.1zm0-1.4v.6c0 .1 0 .1.1.1h.7c.1 0 .1-.1.1-.1v-.6c0-.1 0-.1-.1-.1H51c-.1 0-.1 0-.1.1zm0-1.4v.6c0 .1 0 .1.1.1h.7c.1 0 .1-.1.1-.1v-.6c0-.1 0-.1-.1-.1H51c-.1 0-.1 0-.1.1zm0-5.6v.6c0 .1 0 .1.1.1h.7c.1 0 .1-.1.1-.1v-.6c0-.1 0-.1-.1-.1H51c-.1 0-.1 0-.1.1zm0-2.8v.6c0 .1 0 .1.1.1h.7c.1 0 .1-.1.1-.1v-.6c0-.1 0-.1-.1-.1H51c-.1 0-.1 0-.1.1zm0-1.4v.6c0 .1 0 .1.1.1h.7c.1 0 .1-.1.1-.1v-.6c0-.1 0-.1-.1-.1H51c-.1 0-.1 0-.1.1zm0-1.4v.6c0 .1 0 .1.1.1h.7c.1 0 .1-.1.1-.1v-.6c0-.1 0-.1-.1-.1H51c-.1 0-.1 0-.1.1zm0-1.4v.6c0 .1 0 .1.1.1h.7c.1 0 .1-.1.1-.1v-.6c0-.1 0-.1-.1-.1H51c-.1 0-.1 0-.1.1zm0-1.4v.6c0 .1 0 .1.1.1h.7c.1 0 .1-.1.1-.1v-.6c0-.1 0-.1-.1-.1H51c-.1 0-.1 0-.1.1zm0-1.4v.6c0 .1 0 .1.1.1h.7c.1 0 .1-.1.1-.1v-.6c0-.1 0-.1-.1-.1H51c-.1 0-.1 0-.1.1zm0-1.4v.6c0 .1 0 .1.1.1h.7c.1 0 .1-.1.1-.1v-.6c0-.1 0-.1-.1-.1H51c-.1 0-.1 0-.1.1zm0-1.4v.6c0 .1 0 .1.1.1h.7c.1 0 .1-.1.1-.1v-.6c0-.1 0-.1-.1-.1H51c-.1 0-.1 0-.1.1zm0-1.4v.6c0 .1 0 .1.1.1h.7c.1 0 .1-.1.1-.1v-.6c0-.1 0-.1-.1-.1H51c-.1 0-.1 0-.1.1zm0-1.4v.6c0 .1 0 .1.1.1h.7c.1 0 .1-.1.1-.1v-.6c0-.1 0-.1-.1-.1H51c-.1 0-.1 0-.1.1zm0-1.4v.6c0 .1 0 .1.1.1h.7c.1 0 .1-.1.1-.1v-.6c0-.1 0-.1-.1-.1H51c-.1 0-.1 0-.1.1zm0-1.4v.6c0 .1 0 .1.1.1h.7c.1 0 .1-.1.1-.1v-.6c0-.1 0-.1-.1-.1H51c-.1 0-.1 0-.1.1zm0-1.4v.6c0 .1 0 .1.1.1h.7c.1 0 .1-.1.1-.1v-.6c0-.1 0-.1-.1-.1H51c-.1 0-.1 0-.1.1zm-1.5 22.4v.6c0 .1 0 .1.1.1h.7c.1 0 .1-.1.1-.1v-.6c0-.1 0-.1-.1-.1h-.7s-.1 0-.1.1zm0 7v.6c0 .1 0 .1.1.1h.7c.1 0 .1-.1.1-.1v-.6c0-.1 0-.1-.1-.1h-.7s-.1 0-.1.1zm0-5.6v.6c0 .1 0 .1.1.1h.7c.1 0 .1-.1.1-.1v-.6c0-.1 0-.1-.1-.1h-.7s-.1 0-.1.1zm0-25.2v.6c0 .1 0 .1.1.1h.7c.1 0 .1-.1.1-.1v-.6c0-.1 0-.1-.1-.1h-.7s-.1 0-.1.1zm0 28v.6c0 .1 0 .1.1.1h.7c.1 0 .1-.1.1-.1v-.6c0-.1 0-.1-.1-.1h-.7s-.1 0-.1.1zm0-7v.6c0 .1 0 .1.1.1h.7c.1 0 .1-.1.1-.1v-.6c0-.1 0-.1-.1-.1h-.7s-.1 0-.1.1zm0-2.8v.6c0 .1 0 .1.1.1h.7c.1 0 .1-.1.1-.1v-.6c0-.1 0-.1-.1-.1h-.7s-.1 0-.1.1zm0-1.4v.6c0 .1 0 .1.1.1h.7c.1 0 .1-.1.1-.1v-.6c0-.1 0-.1-.1-.1h-.7s-.1 0-.1.1zm0-2.8v.6c0 .1 0 .1.1.1h.7c.1 0 .1-.1.1-.1v-.6c0-.1 0-.1-.1-.1h-.7s-.1 0-.1.1zm0-1.4v.6c0 .1 0 .1.1.1h.7c.1 0 .1-.1.1-.1v-.6c0-.1 0-.1-.1-.1h-.7s-.1 0-.1.1zm0-1.4v.6c0 .1 0 .1.1.1h.7c.1 0 .1-.1.1-.1v-.6c0-.1 0-.1-.1-.1h-.7s-.1 0-.1.1zm0-1.4v.6c0 .1 0 .1.1.1h.7c.1 0 .1-.1.1-.1v-.6c0-.1 0-.1-.1-.1h-.7s-.1 0-.1.1zm0-1.4v.6c0 .1 0 .1.1.1h.7c.1 0 .1-.1.1-.1v-.6c0-.1 0-.1-.1-.1h-.7s-.1 0-.1.1zm0-1.4v.6c0 .1 0 .1.1.1h.7c.1 0 .1-.1.1-.1v-.6c0-.1 0-.1-.1-.1h-.7s-.1 0-.1.1zm0-1.4v.6c0 .1 0 .1.1.1h.7c.1 0 .1-.1.1-.1v-.6c0-.1 0-.1-.1-.1h-.7s-.1 0-.1.1zm0-1.4v.6c0 .1 0 .1.1.1h.7c.1 0 .1-.1.1-.1v-.6c0-.1 0-.1-.1-.1h-.7s-.1 0-.1.1zm0-1.4v.6c0 .1 0 .1.1.1h.7c.1 0 .1-.1.1-.1v-.6c0-.1 0-.1-.1-.1h-.7s-.1 0-.1.1zm0-1.4v.6c0 .1 0 .1.1.1h.7c.1 0 .1-.1.1-.1v-.6c0-.1 0-.1-.1-.1h-.7s-.1 0-.1.1zm-1.5 22.4v.6c0 .1 0 .1.1.1h.7c.1 0 .1-.1.1-.1v-.6c0-.1 0-.1-.1-.1H48s-.1 0-.1.1zm0 7v.6c0 .1 0 .1.1.1h.7c.1 0 .1-.1.1-.1v-.6c0-.1 0-.1-.1-.1H48s-.1 0-.1.1zm0-11.2v.6c0 .1 0 .1.1.1h.7c.1 0 .1-.1.1-.1v-.6c0-.1 0-.1-.1-.1H48s-.1 0-.1.1zm0-19.6v.6c0 .1 0 .1.1.1h.7c.1 0 .1-.1.1-.1v-.6c0-.1 0-.1-.1-.1H48s-.1 0-.1.1zm0 29.4v.6c0 .1 0 .1.1.1h.7c.1 0 .1-.1.1-.1v-.6c0-.1 0-.1-.1-.1H48s-.1 0-.1.1zm0-1.4v.6c0 .1 0 .1.1.1h.7c.1 0 .1-.1.1-.1v-.6c0-.1 0-.1-.1-.1H48s-.1 0-.1.1zm0-1.4v.6c0 .1 0 .1.1.1h.7c.1 0 .1-.1.1-.1v-.6c0-.1 0-.1-.1-.1H48s-.1 0-.1.1zm0-5.6v.6c0 .1 0 .1.1.1h.7c.1 0 .1-.1.1-.1v-.6c0-.1 0-.1-.1-.1H48s-.1 0-.1.1zm0-2.8v.6c0 .1 0 .1.1.1h.7c.1 0 .1-.1.1-.1v-.6c0-.1 0-.1-.1-.1H48s-.1 0-.1.1zm0-1.4v.6c0 .1 0 .1.1.1h.7c.1 0 .1-.1.1-.1v-.6c0-.1 0-.1-.1-.1H48s-.1 0-.1.1zm0-1.4v.6c0 .1 0 .1.1.1h.7c.1 0 .1-.1.1-.1v-.6c0-.1 0-.1-.1-.1H48s-.1 0-.1.1zm0-2.8v.6c0 .1 0 .1.1.1h.7c.1 0 .1-.1.1-.1v-.6c0-.1 0-.1-.1-.1H48s-.1 0-.1.1zm0-1.4v.6c0 .1 0 .1.1.1h.7c.1 0 .1-.1.1-.1v-.6c0-.1 0-.1-.1-.1H48s-.1 0-.1.1zm0-1.4v.6c0 .1 0 .1.1.1h.7c.1 0 .1-.1.1-.1v-.6c0-.1 0-.1-.1-.1H48s-.1 0-.1.1zm0-1.4v.6c0 .1 0 .1.1.1h.7c.1 0 .1-.1.1-.1v-.6c0-.1 0-.1-.1-.1H48s-.1 0-.1.1zm0-2.8v.6c0 .1 0 .1.1.1h.7c.1 0 .1-.1.1-.1v-.6c0-.1 0-.1-.1-.1H48s-.1 0-.1.1zm0-1.4v.6c0 .1 0 .1.1.1h.7c.1 0 .1-.1.1-.1v-.6c0-.1 0-.1-.1-.1H48s-.1 0-.1.1zm0-1.4v.6c0 .1 0 .1.1.1h.7c.1 0 .1-.1.1-.1v-.6c0-.1 0-.1-.1-.1H48s-.1 0-.1.1zm0-1.4v.6c0 .1 0 .1.1.1h.7c.1 0 .1-.1.1-.1v-.6c0-.1 0-.1-.1-.1H48s-.1 0-.1.1zm-1.4 0v.6c0 .1 0 .1.1.1h.7c.1 0 .1-.1.1-.1v-.6c0-.1 0-.1-.1-.1h-.7c-.1 0-.1 0-.1.1zm0 1.4v.6c0 .1 0 .1.1.1h.7c.1 0 .1-.1.1-.1v-.6c0-.1 0-.1-.1-.1h-.7c-.1 0-.1 0-.1.1zm0 1.4v.6c0 .1 0 .1.1.1h.7c.1 0 .1-.1.1-.1v-.6c0-.1 0-.1-.1-.1h-.7c-.1 0-.1 0-.1.1zm0 1.4v.6c0 .1 0 .1.1.1h.7c.1 0 .1-.1.1-.1v-.6c0-.1 0-.1-.1-.1h-.7c-.1 0-.1 0-.1.1zm0 1.4v.6c0 .1 0 .1.1.1h.7c.1 0 .1-.1.1-.1v-.6c0-.1 0-.1-.1-.1h-.7c-.1 0-.1 0-.1.1zm0 1.4v.6c0 .1 0 .1.1.1h.7c.1 0 .1-.1.1-.1v-.6c0-.1 0-.1-.1-.1h-.7c-.1 0-.1 0-.1.1zm0 1.4v.6c0 .1 0 .1.1.1h.7c.1 0 .1-.1.1-.1v-.6c0-.1 0-.1-.1-.1h-.7c-.1 0-.1 0-.1.1zm0 1.4v.6c0 .1 0 .1.1.1h.7c.1 0 .1-.1.1-.1v-.6c0-.1 0-.1-.1-.1h-.7c-.1 0-.1 0-.1.1zm0 1.4v.6c0 .1 0 .1.1.1h.7c.1 0 .1-.1.1-.1v-.6c0-.1 0-.1-.1-.1h-.7c-.1 0-.1 0-.1.1zm0 1.4v.6c0 .1 0 .1.1.1h.7c.1 0 .1-.1.1-.1v-.6c0-.1 0-.1-.1-.1h-.7c-.1 0-.1 0-.1.1zm0 1.4v.6c0 .1 0 .1.1.1h.7c.1 0 .1-.1.1-.1v-.6c0-.1 0-.1-.1-.1h-.7c-.1 0-.1 0-.1.1zm0 1.4v.6c0 .1 0 .1.1.1h.7c.1 0 .1-.1.1-.1v-.6c0-.1 0-.1-.1-.1h-.7c-.1 0-.1 0-.1.1zm0 1.4v.6c0 .1 0 .1.1.1h.7c.1 0 .1-.1.1-.1v-.6c0-.1 0-.1-.1-.1h-.7c-.1 0-.1 0-.1.1zm0 11.2v.6c0 .1 0 .1.1.1h.7c.1 0 .1-.1.1-.1v-.6c0-.1 0-.1-.1-.1h-.7c-.1 0-.1 0-.1.1zm0-29.4v.6c0 .1 0 .1.1.1h.7c.1 0 .1-.1.1-.1v-.6c0-.1 0-.1-.1-.1h-.7c-.1 0-.1 0-.1.1zm0 19.6v.6c0 .1 0 .1.1.1h.7c.1 0 .1-.1.1-.1v-.6c0-.1 0-.1-.1-.1h-.7c-.1 0-.1 0-.1.1zm0 2.8v.6c0 .1 0 .1.1.1h.7c.1 0 .1-.1.1-.1v-.6c0-.1 0-.1-.1-.1h-.7c-.1 0-.1 0-.1.1zm0 2.8v.6c0 .1 0 .1.1.1h.7c.1 0 .1-.1.1-.1v-.6c0-.1 0-.1-.1-.1h-.7c-.1 0-.1 0-.1.1zM18.9 53.3c0-.2.1-.3.3-.3h.7c.2 0 .3.1.3.3v.8c0 .2-.1.3-.3.3h-.7c-.2 0-.3-.1-.3-.3v-.8zm-1.7-1.9c0-.2.1-.3.3-.3h.7c.2 0 .3.1.3.3v.8c0 .2-.1.3-.3.3h-.7c-.2 0-.3-.1-.3-.3v-.8zm-3.3 0c0-.2.1-.3.3-.3h.7c.2 0 .3.1.3.3v.8c0 .2-.1.3-.3.3h-.7c-.2 0-.3-.1-.3-.3v-.8zm-3.2-3.8c0-.2.1-.3.3-.3h.7c.2 0 .3.1.3.3v.8c0 .2-.1.3-.3.3H11c-.2 0-.3-.1-.3-.3v-.8zm9.8-7.7c0-.2.1-.3.3-.3h.7c.2 0 .3.1.3.3v.8c0 .2-.1.3-.3.3h-.7c-.2 0-.3-.1-.3-.3v-.8zm0 1.9c0-.2.1-.3.3-.3h.7c.2 0 .3.1.3.3v.8c0 .2-.1.3-.3.3h-.7c-.2 0-.3-.1-.3-.3v-.8zm0-3.8c0-.2.1-.3.3-.3h.7c.2 0 .3.1.3.3v.8c0 .2-.1.3-.3.3h-.7c-.2 0-.3-.1-.3-.3V38zm0 7.6c0-.2.1-.3.3-.3h.7c.2 0 .3.1.3.3v.8c0 .2-.1.3-.3.3h-.7c-.2 0-.3-.1-.3-.3v-.8zm0-1.9c0-.2.1-.3.3-.3h.7c.2 0 .3.1.3.3v.8c0 .2-.1.3-.3.3h-.7c-.2 0-.3-.1-.3-.3v-.8zm0-11.4c0-.2.1-.3.3-.3h.7c.2 0 .3.1.3.3v.8c0 .2-.1.3-.3.3h-.7c-.2 0-.3-.1-.3-.3v-.8zm0-1.9c0-.2.1-.3.3-.3h.7c.2 0 .3.1.3.3v.8c0 .2-.1.3-.3.3h-.7c-.2 0-.3-.1-.3-.3v-.8zm0-2c0-.2.1-.3.3-.3h.7c.2 0 .3.1.3.3v.8c0 .2-.1.3-.3.3h-.7c-.2 0-.3-.1-.3-.3v-.8zm0-3.8c0-.2.1-.3.3-.3h.7c.2 0 .3.1.3.3v.8c0 .2-.1.3-.3.3h-.7c-.2 0-.3-.1-.3-.3v-.8zm0-1.9c0-.2.1-.3.3-.3h.7c.2 0 .3.1.3.3v.8c0 .2-.1.3-.3.3h-.7c-.2 0-.3-.1-.3-.3v-.8zm0-1.9c0-.2.1-.3.3-.3h.7c.2 0 .3.1.3.3v.8c0 .2-.1.3-.3.3h-.7c-.2 0-.3-.1-.3-.3v-.8zm0-3.8c0-.2.1-.3.3-.3h.7c.2 0 .3.1.3.3v.8c0 .2-.1.3-.3.3h-.7c-.2 0-.3-.1-.3-.3V17zm0-1.9c0-.2.1-.3.3-.3h.7c.2 0 .3.1.3.3v.8c0 .2-.1.3-.3.3h-.7c-.2 0-.3-.1-.3-.3v-.8zm0-1.9c0-.2.1-.3.3-.3h.7c.2 0 .3.1.3.3v.8c0 .2-.1.3-.3.3h-.7c-.2 0-.3-.1-.3-.3v-.8zm0-2c0-.2.1-.3.3-.3h.7c.2 0 .3.1.3.3v.8c0 .2-.1.3-.3.3h-.7c-.2 0-.3-.1-.3-.3v-.8zm-1.6 28.7c0-.2.1-.3.3-.3h.7c.2 0 .3.1.3.3v.8c0 .2-.1.3-.3.3h-.7c-.2 0-.3-.1-.3-.3v-.8zm0 9.6c0-.2.1-.3.3-.3h.7c.2 0 .3.1.3.3v.8c0 .2-.1.3-.3.3h-.7c-.2 0-.3-.1-.3-.3v-.8zm0-7.7c0-.2.1-.3.3-.3h.7c.2 0 .3.1.3.3v.8c0 .2-.1.3-.3.3h-.7c-.2 0-.3-.1-.3-.3v-.8zm0-3.8c0-.2.1-.3.3-.3h.7c.2 0 .3.1.3.3v.8c0 .2-.1.3-.3.3h-.7c-.2 0-.3-.1-.3-.3V38zm0-3.8c0-.2.1-.3.3-.3h.7c.2 0 .3.1.3.3v.8c0 .2-.1.3-.3.3h-.7c-.2 0-.3-.1-.3-.3v-.8zm0 9.5c0-.2.1-.3.3-.3h.7c.2 0 .3.1.3.3v.8c0 .2-.1.3-.3.3h-.7c-.2 0-.3-.1-.3-.3v-.8zm0-7.6c0-.2.1-.3.3-.3h.7c.2 0 .3.1.3.3v.8c0 .2-.1.3-.3.3h-.7c-.2 0-.3-.1-.3-.3v-.8zm0-3.8c0-.2.1-.3.3-.3h.7c.2 0 .3.1.3.3v.8c0 .2-.1.3-.3.3h-.7c-.2 0-.3-.1-.3-.3v-.8zm0-3.9c0-.2.1-.3.3-.3h.7c.2 0 .3.1.3.3v.8c0 .2-.1.3-.3.3h-.7c-.2 0-.3-.1-.3-.3v-.8zm0-1.9c0-.2.1-.3.3-.3h.7c.2 0 .3.1.3.3v.8c0 .2-.1.3-.3.3h-.7c-.2 0-.3-.1-.3-.3v-.8zm0-1.9c0-.2.1-.3.3-.3h.7c.2 0 .3.1.3.3v.8c0 .2-.1.3-.3.3h-.7c-.2 0-.3-.1-.3-.3v-.8zm0-1.9c0-.2.1-.3.3-.3h.7c.2 0 .3.1.3.3v.8c0 .2-.1.3-.3.3h-.7c-.2 0-.3-.1-.3-.3v-.8zm0-1.9c0-.2.1-.3.3-.3h.7c.2 0 .3.1.3.3v.8c0 .2-.1.3-.3.3h-.7c-.2 0-.3-.1-.3-.3v-.8zm0-1.9c0-.2.1-.3.3-.3h.7c.2 0 .3.1.3.3v.8c0 .2-.1.3-.3.3h-.7c-.2 0-.3-.1-.3-.3v-.8zm0-1.9c0-.2.1-.3.3-.3h.7c.2 0 .3.1.3.3v.8c0 .2-.1.3-.3.3h-.7c-.2 0-.3-.1-.3-.3V17zm0-1.9c0-.2.1-.3.3-.3h.7c.2 0 .3.1.3.3v.8c0 .2-.1.3-.3.3h-.7c-.2 0-.3-.1-.3-.3v-.8zm0-1.9c0-.2.1-.3.3-.3h.7c.2 0 .3.1.3.3v.8c0 .2-.1.3-.3.3h-.7c-.2 0-.3-.1-.3-.3v-.8zm0-2c0-.2.1-.3.3-.3h.7c.2 0 .3.1.3.3v.8c0 .2-.1.3-.3.3h-.7c-.2 0-.3-.1-.3-.3v-.8zm-1.7 28.7c0-.2.1-.3.3-.3h.7c.2 0 .3.1.3.3v.8c0 .2-.1.3-.3.3h-.7c-.2 0-.3-.1-.3-.3v-.8zm0 1.9c0-.2.1-.3.3-.3h.7c.2 0 .3.1.3.3v.8c0 .2-.1.3-.3.3h-.7c-.2 0-.3-.1-.3-.3v-.8zm0-7.6c0-.2.1-.3.3-.3h.7c.2 0 .3.1.3.3v.8c0 .2-.1.3-.3.3h-.7c-.2 0-.3-.1-.3-.3v-.8zm0 13.4c0-.2.1-.3.3-.3h.7c.2 0 .3.1.3.3v.8c0 .2-.1.3-.3.3h-.7c-.2 0-.3-.1-.3-.3v-.8zm0-11.5c0-.2.1-.3.3-.3h.7c.2 0 .3.1.3.3v.8c0 .2-.1.3-.3.3h-.7c-.2 0-.3-.1-.3-.3v-.8zm0-3.8c0-.2.1-.3.3-.3h.7c.2 0 .3.1.3.3v.8c0 .2-.1.3-.3.3h-.7c-.2 0-.3-.1-.3-.3v-.8zm0-3.9c0-.2.1-.3.3-.3h.7c.2 0 .3.1.3.3v.8c0 .2-.1.3-.3.3h-.7c-.2 0-.3-.1-.3-.3v-.8zm0-1.9c0-.2.1-.3.3-.3h.7c.2 0 .3.1.3.3v.8c0 .2-.1.3-.3.3h-.7c-.2 0-.3-.1-.3-.3v-.8zm0-1.9c0-.2.1-.3.3-.3h.7c.2 0 .3.1.3.3v.8c0 .2-.1.3-.3.3h-.7c-.2 0-.3-.1-.3-.3v-.8zm0-1.9c0-.2.1-.3.3-.3h.7c.2 0 .3.1.3.3v.8c0 .2-.1.3-.3.3h-.7c-.2 0-.3-.1-.3-.3v-.8zm0-1.9c0-.2.1-.3.3-.3h.7c.2 0 .3.1.3.3v.8c0 .2-.1.3-.3.3h-.7c-.2 0-.3-.1-.3-.3v-.8zm0-1.9c0-.2.1-.3.3-.3h.7c.2 0 .3.1.3.3v.8c0 .2-.1.3-.3.3h-.7c-.2 0-.3-.1-.3-.3v-.8zm0-1.9c0-.2.1-.3.3-.3h.7c.2 0 .3.1.3.3v.8c0 .2-.1.3-.3.3h-.7c-.2 0-.3-.1-.3-.3V17zm0-1.9c0-.2.1-.3.3-.3h.7c.2 0 .3.1.3.3v.8c0 .2-.1.3-.3.3h-.7c-.2 0-.3-.1-.3-.3v-.8zm0-1.9c0-.2.1-.3.3-.3h.7c.2 0 .3.1.3.3v.8c0 .2-.1.3-.3.3h-.7c-.2 0-.3-.1-.3-.3v-.8zm0-2c0-.2.1-.3.3-.3h.7c.2 0 .3.1.3.3v.8c0 .2-.1.3-.3.3h-.7c-.2 0-.3-.1-.3-.3v-.8zm0-1.9c0-.2.1-.3.3-.3h.7c.2 0 .3.1.3.3v.8c0 .2-.1.3-.3.3h-.7c-.2 0-.3-.1-.3-.3v-.8zm-1.6 40.2c0-.2.1-.3.3-.3h.7c.2 0 .3.1.3.3v.8c0 .2-.1.3-.3.3h-.7c-.2 0-.3-.1-.3-.3v-.8zm0-15.3c0-.2.1-.3.3-.3h.7c.2 0 .3.1.3.3v.8c0 .2-.1.3-.3.3h-.7c-.2 0-.3-.1-.3-.3v-.8zm0 13.4c0-.2.1-.3.3-.3h.7c.2 0 .3.1.3.3v.8c0 .2-.1.3-.3.3h-.7c-.2 0-.3-.1-.3-.3v-.8zm0-11.5c0-.2.1-.3.3-.3h.7c.2 0 .3.1.3.3v.8c0 .2-.1.3-.3.3h-.7c-.2 0-.3-.1-.3-.3v-.8zm0-3.8c0-.2.1-.3.3-.3h.7c.2 0 .3.1.3.3v.8c0 .2-.1.3-.3.3h-.7c-.2 0-.3-.1-.3-.3v-.8zm0-1.9c0-.2.1-.3.3-.3h.7c.2 0 .3.1.3.3v.8c0 .2-.1.3-.3.3h-.7c-.2 0-.3-.1-.3-.3v-.8zm0-2c0-.2.1-.3.3-.3h.7c.2 0 .3.1.3.3v.8c0 .2-.1.3-.3.3h-.7c-.2 0-.3-.1-.3-.3v-.8zm0-1.9c0-.2.1-.3.3-.3h.7c.2 0 .3.1.3.3v.8c0 .2-.1.3-.3.3h-.7c-.2 0-.3-.1-.3-.3v-.8zm0-1.9c0-.2.1-.3.3-.3h.7c.2 0 .3.1.3.3v.8c0 .2-.1.3-.3.3h-.7c-.2 0-.3-.1-.3-.3v-.8zm0-5.7c0-.2.1-.3.3-.3h.7c.2 0 .3.1.3.3v.8c0 .2-.1.3-.3.3h-.7c-.2 0-.3-.1-.3-.3v-.8zm0-3.8c0-.2.1-.3.3-.3h.7c.2 0 .3.1.3.3v.8c0 .2-.1.3-.3.3h-.7c-.2 0-.3-.1-.3-.3v-.8zm0-1.9c0-.2.1-.3.3-.3h.7c.2 0 .3.1.3.3v.8c0 .2-.1.3-.3.3h-.7c-.2 0-.3-.1-.3-.3v-.8zm0-2c0-.2.1-.3.3-.3h.7c.2 0 .3.1.3.3v.8c0 .2-.1.3-.3.3h-.7c-.2 0-.3-.1-.3-.3v-.8zm0-1.9c0-.2.1-.3.3-.3h.7c.2 0 .3.1.3.3v.8c0 .2-.1.3-.3.3h-.7c-.2 0-.3-.1-.3-.3v-.8zM13.9 38c0-.2.1-.3.3-.3h.8c.2 0 .3.1.3.3v.8c0 .2-.1.3-.3.3h-.7c-.2 0-.3-.1-.3-.3l-.1-.8zm0-3.8c0-.2.1-.3.3-.3h.8c.2 0 .3.1.3.3v.8c0 .2-.1.3-.3.3h-.7c-.2 0-.3-.1-.3-.3l-.1-.8zm0 13.4c0-.2.1-.3.3-.3h.7c.2 0 .3.1.3.3v.8c0 .2-.1.3-.3.3h-.7c-.2 0-.3-.1-.3-.3v-.8zm0-2c0-.2.1-.3.3-.3h.8c.2 0 .3.1.3.3v.8c0 .2-.1.3-.3.3h-.7c-.2 0-.3-.1-.3-.3v-.8zm0-9.5c0-.2.1-.3.3-.3h.8c.2 0 .3.1.3.3v.8c0 .2-.1.3-.3.3h-.7c-.2 0-.3-.1-.3-.3v-.8zm0-3.8c0-.2.1-.3.3-.3h.7c.2 0 .3.1.3.3v.8c0 .2-.1.3-.3.3h-.7c-.2 0-.3-.1-.3-.3v-.8zm0-1.9c0-.2.1-.3.3-.3h.8c.2 0 .3.1.3.3v.8c0 .2-.1.3-.3.3h-.7c-.2 0-.3-.1-.3-.3v-.8zm0-2c0-.2.1-.3.3-.3h.8c.2 0 .3.1.3.3v.8c0 .2-.1.3-.3.3h-.7c-.2 0-.3-.1-.3-.3v-.8zm0-3.8c0-.2.1-.3.3-.3h.8c.2 0 .3.1.3.3v.8c0 .2-.1.3-.3.3h-.7c-.2 0-.3-.1-.3-.3v-.8zm0-1.9c0-.2.1-.3.3-.3h.8c.2 0 .3.1.3.3v.8c0 .2-.1.3-.3.3h-.7c-.2 0-.3-.1-.3-.3v-.8zm0-1.9c0-.2.1-.3.3-.3h.8c.2 0 .3.1.3.3v.8c0 .2-.1.3-.3.3h-.7c-.2 0-.3-.1-.3-.3v-.8zm0-1.9c0-.2.1-.3.3-.3h.8c.2 0 .3.1.3.3v.8c0 .2-.1.3-.3.3h-.7c-.2 0-.3-.1-.3-.3v-.8zm0-1.9c0-.2.1-.3.3-.3h.8c.2 0 .3.1.3.3v.8c0 .2-.1.3-.3.3h-.7c-.2 0-.3-.1-.3-.3V17zm0-1.9c0-.2.1-.3.3-.3h.8c.2 0 .3.1.3.3v.8c0 .2-.1.3-.3.3h-.7c-.2 0-.3-.1-.3-.3v-.8zm0-1.9c0-.2.1-.3.3-.3h.8c.2 0 .3.1.3.3v.8c0 .2-.1.3-.3.3h-.7c-.2 0-.3-.1-.3-.3v-.8zm0-2c0-.2.1-.3.3-.3h.8c.2 0 .3.1.3.3v.8c0 .2-.1.3-.3.3h-.7c-.2 0-.3-.1-.3-.3v-.8zm0-1.9c0-.2.1-.3.3-.3h.8c.2 0 .3.1.3.3v.8c0 .2-.1.3-.3.3h-.7c-.2 0-.3-.1-.3-.3v-.8zm-1.6 30.6c0-.2.1-.3.3-.3h.7c.2 0 .3.1.3.3v.8c0 .2-.1.3-.3.3h-.7c-.2 0-.3-.1-.3-.3v-.8zm0 1.9c0-.2.1-.3.3-.3h.7c.2 0 .3.1.3.3v.8c0 .2-.1.3-.3.3h-.7c-.2 0-.3-.1-.3-.3v-.8zm0-3.8c0-.2.1-.3.3-.3h.7c.2 0 .3.1.3.3v.8c0 .2-.1.3-.3.3h-.7c-.2 0-.3-.1-.3-.3V38zm0-3.8c0-.2.1-.3.3-.3h.7c.2 0 .3.1.3.3v.8c0 .2-.1.3-.3.3h-.7c-.2 0-.3-.1-.3-.3v-.8zm0 1.9c0-.2.1-.3.3-.3h.7c.2 0 .3.1.3.3v.8c0 .2-.1.3-.3.3h-.7c-.2 0-.3-.1-.3-.3v-.8zm0-3.8c0-.2.1-.3.3-.3h.7c.2 0 .3.1.3.3v.8c0 .2-.1.3-.3.3h-.7c-.2 0-.3-.1-.3-.3v-.8zm0-1.9c0-.2.1-.3.3-.3h.7c.2 0 .3.1.3.3v.8c0 .2-.1.3-.3.3h-.7c-.2 0-.3-.1-.3-.3v-.8zm0-2c0-.2.1-.3.3-.3h.7c.2 0 .3.1.3.3v.8c0 .2-.1.3-.3.3h-.7c-.2 0-.3-.1-.3-.3v-.8zm0-1.9c0-.2.1-.3.3-.3h.7c.2 0 .3.1.3.3v.8c0 .2-.1.3-.3.3h-.7c-.2 0-.3-.1-.3-.3v-.8zm0-1.9c0-.2.1-.3.3-.3h.7c.2 0 .3.1.3.3v.8c0 .2-.1.3-.3.3h-.7c-.2 0-.3-.1-.3-.3v-.8zm0-1.9c0-.2.1-.3.3-.3h.7c.2 0 .3.1.3.3v.8c0 .2-.1.3-.3.3h-.7c-.2 0-.3-.1-.3-.3v-.8zm0-1.9c0-.2.1-.3.3-.3h.7c.2 0 .3.1.3.3v.8c0 .2-.1.3-.3.3h-.7c-.2 0-.3-.1-.3-.3v-.8zm0-1.9c0-.2.1-.3.3-.3h.7c.2 0 .3.1.3.3v.8c0 .2-.1.3-.3.3h-.7c-.2 0-.3-.1-.3-.3v-.8zm0-1.9c0-.2.1-.3.3-.3h.7c.2 0 .3.1.3.3v.8c0 .2-.1.3-.3.3h-.7c-.2 0-.3-.1-.3-.3V17zm0-1.9c0-.2.1-.3.3-.3h.7c.2 0 .3.1.3.3v.8c0 .2-.1.3-.3.3h-.7c-.2 0-.3-.1-.3-.3v-.8zm0-1.9c0-.2.1-.3.3-.3h.7c.2 0 .3.1.3.3v.8c0 .2-.1.3-.3.3h-.7c-.2 0-.3-.1-.3-.3v-.8zm0-2c0-.2.1-.3.3-.3h.7c.2 0 .3.1.3.3v.8c0 .2-.1.3-.3.3h-.7c-.2 0-.3-.1-.3-.3v-.8zm-1.6 28.7c0-.2.1-.3.3-.3h.7c.2 0 .3.1.3.3v.8c0 .2-.1.3-.3.3H11c-.2 0-.3-.1-.3-.3v-.8zm0-3.8c0-.2.1-.3.3-.3h.7c.2 0 .3.1.3.3v.8c0 .2-.1.3-.3.3H11c-.2 0-.3-.1-.3-.3v-.8zm0-3.8c0-.2.1-.3.3-.3h.7c.2 0 .3.1.3.3v.8c0 .2-.1.3-.3.3H11c-.2 0-.3-.1-.3-.3v-.8zm0-1.9c0-.2.1-.3.3-.3h.7c.2 0 .3.1.3.3v.8c0 .2-.1.3-.3.3H11c-.2 0-.3-.1-.3-.3v-.8zm0-2c0-.2.1-.3.3-.3h.7c.2 0 .3.1.3.3v.8c0 .2-.1.3-.3.3H11c-.2 0-.3-.1-.3-.3v-.8zm0-3.8c0-.2.1-.3.3-.3h.7c.2 0 .3.1.3.3v.8c0 .2-.1.3-.3.3H11c-.2 0-.3-.1-.3-.3v-.8zm0-1.9c0-.2.1-.3.3-.3h.7c.2 0 .3.1.3.3v.8c0 .2-.1.3-.3.3H11c-.2 0-.3-.1-.3-.3v-.8zm0-1.9c0-.2.1-.3.3-.3h.7c.2 0 .3.1.3.3v.8c0 .2-.1.3-.3.3H11c-.2 0-.3-.1-.3-.3v-.8zm0-1.9c0-.2.1-.3.3-.3h.7c.2 0 .3.1.3.3v.8c0 .2-.1.3-.3.3H11c-.2 0-.3-.1-.3-.3v-.8zm0-1.9c0-.2.1-.3.3-.3h.7c.2 0 .3.1.3.3v.8c0 .2-.1.3-.3.3H11c-.2 0-.3-.1-.3-.3V17zm0-1.9c0-.2.1-.3.3-.3h.7c.2 0 .3.1.3.3v.8c0 .2-.1.3-.3.3H11c-.2 0-.3-.1-.3-.3v-.8zm0-1.9c0-.2.1-.3.3-.3h.7c.2 0 .3.1.3.3v.8c0 .2-.1.3-.3.3H11c-.2 0-.3-.1-.3-.3v-.8zm0-2c0-.2.1-.3.3-.3h.7c.2 0 .3.1.3.3v.8c0 .2-.1.3-.3.3H11c-.2 0-.3-.1-.3-.3v-.8zM9.3 38.2v.5c0 .1 0 .1-.1.1h-.6c-.1 0-.1-.1-.1-.1v-.5c0-.1 0-.1.1-.1h.6c.1 0 .1.1.1.1M9.3 35.6v.5c0 .1 0 .1-.1.1h-.6c-.1 0-.1-.1-.1-.1v-.5c0-.1 0-.1.1-.1h.6c.1 0 .1 0 .1.1M9.3 17.1v.5c0 .1 0 .1-.1.1h-.6c-.1 0-.1-.1-.1-.1v-.5c0-.1 0-.1.1-.1h.6c.1 0 .1.1.1.1M9.3 44.8v.5c0 .1 0 .1-.1.1h-.6c-.1 0-.1-.1-.1-.1v-.5c0-.1 0-.1.1-.1h.6c.1 0 .1 0 .1.1M9.3 34.3v.5c0 .1 0 .1-.1.1h-.6c-.1 0-.1-.1-.1-.1v-.5c0-.1 0-.1.1-.1h.6c.1-.1.1 0 .1.1M9.3 32.9v.5c0 .1 0 .1-.1.1h-.6c-.1 0-.1-.1-.1-.1v-.5c0-.1 0-.1.1-.1h.6c.1 0 .1.1.1.1M9.3 31.6v.5c0 .1 0 .1-.1.1h-.6c-.1 0-.1-.1-.1-.1v-.5c0-.1 0-.1.1-.1h.6c.1 0 .1.1.1.1M9.3 30.3v.5c0 .1 0 .1-.1.1h-.6c-.1 0-.1-.1-.1-.1v-.5c0-.1 0-.1.1-.1h.6c.1 0 .1.1.1.1M9.3 27.7v.5c0 .1 0 .1-.1.1h-.6c-.1 0-.1-.1-.1-.1v-.5c0-.1 0-.1.1-.1h.6c.1 0 .1 0 .1.1M9.3 26.4v.5c0 .1 0 .1-.1.1h-.6c-.1 0-.1-.1-.1-.1v-.5c0-.1 0-.1.1-.1h.6c.1-.1.1 0 .1.1M9.3 25v.5c0 .1 0 .1-.1.1h-.6c-.1 0-.1-.1-.1-.1V25c0-.1 0-.1.1-.1h.6c.1 0 .1.1.1.1M9.3 23.7v.5c0 .1 0 .1-.1.1h-.6c-.1 0-.1-.1-.1-.1v-.5c0-.1 0-.1.1-.1h.6c.1 0 .1.1.1.1M9.3 19.8v.5c0 .1 0 .1-.1.1h-.6c-.1 0-.1-.1-.1-.1v-.5c0-.1 0-.1.1-.1h.6c.1 0 .1 0 .1.1M9.3 18.4v.6c0 .1 0 .1-.1.1h-.6c-.1 0-.1-.1-.1-.1v-.5c0-.1 0-.1.1-.1h.6c.1-.1.1 0 .1 0M8.1 18.4v.6c0 .1 0 .1-.1.1h-.6c-.1 0-.1-.1-.1-.1v-.5c0-.1 0-.1.1-.1H8c0-.1.1 0 .1 0M8.1 19.8v.5c0 .1 0 .1-.1.1h-.6c-.1 0-.1-.1-.1-.1v-.5c0-.1 0-.1.1-.1H8s.1 0 .1.1M8.1 21.1v.5c0 .1 0 .1-.1.1h-.6c-.1 0-.1-.1-.1-.1v-.5c0-.1 0-.1.1-.1H8s.1 0 .1.1M8.1 22.4v.5c0 .1 0 .1-.1.1h-.6c-.1 0-.1-.1-.1-.1v-.5c0-.1 0-.1.1-.1H8s.1 0 .1.1M8.1 25v.5c0 .1 0 .1-.1.1h-.6c-.1 0-.1-.1-.1-.1V25c0-.1 0-.1.1-.1H8l.1.1M8.1 26.4v.5c0 .1-.1.1-.1.1h-.6c-.1 0-.1-.1-.1-.1v-.5c0-.1 0-.1.1-.1H8c0-.1.1 0 .1.1M8.1 27.7v.5c0 .1 0 .1-.1.1h-.6c-.1 0-.1-.1-.1-.1v-.5c0-.1 0-.1.1-.1H8s.1 0 .1.1M8.1 29v.5c0 .1 0 .1-.1.1h-.6c-.1 0-.1-.1-.1-.1V29c0-.1 0-.1.1-.1H8s.1 0 .1.1M8.1 31.6v.5c0 .1 0 .1-.1.1h-.6c-.1 0-.1-.1-.1-.1v-.5c0-.1 0-.1.1-.1H8l.1.1M8.1 32.9v.5c0 .1 0 .1-.1.1h-.6c-.1 0-.1-.1-.1-.1v-.5c0-.1 0-.1.1-.1H8l.1.1M8.1 34.3v.5c0 .1 0 .1-.1.1h-.6c-.1 0-.1-.1-.1-.1v-.5c0-.1 0-.1.1-.1H8c0-.1.1 0 .1.1M8.1 36.9v.5c0 .1 0 .1-.1.1h-.6c-.1 0-.1-.1-.1-.1v-.5c0-.1 0-.1.1-.1H8s.1 0 .1.1M8.1 40.8v.5c0 .1 0 .1-.1.1h-.6c-.1 0-.1-.1-.1-.1v-.5c0-.1 0-.1.1-.1H8l.1.1M8.1 43.5v.5c0 .1 0 .1-.1.1h-.6c-.1 0-.1-.1-.1-.1v-.5c0-.1 0-.1.1-.1H8s.1 0 .1.1M8.1 44.8v.5c0 .1 0 .1-.1.1h-.6c-.1 0-.1-.1-.1-.1v-.5c0-.1 0-.1.1-.1H8s.1 0 .1.1M8.1 46.1v.5c0 .1 0 .1-.1.1h-.6c-.1 0-.1-.1-.1-.1v-.5c0-.1 0-.1.1-.1H8l.1.1M8.1 39.5v.5c0 .1 0 .1-.1.1h-.6c-.1 0-.1-.1-.1-.1v-.5c0-.1 0-.1.1-.1H8l.1.1M6.9 18.4v.6c0 .1 0 .1-.1.1h-.6c-.1 0-.1-.1-.1-.1v-.5c0-.1 0-.1.1-.1h.6c0-.1.1 0 .1 0M6.9 19.8v.5c0 .1 0 .1-.1.1h-.6c-.1 0-.1-.1-.1-.1v-.5c0-.1 0-.1.1-.1h.6s.1 0 .1.1M6.9 21.1v.5c0 .1 0 .1-.1.1h-.6c-.1 0-.1-.1-.1-.1v-.5c0-.1 0-.1.1-.1h.6s.1 0 .1.1M6.9 22.4v.5c0 .1 0 .1-.1.1h-.6c-.1 0-.1-.1-.1-.1v-.5c0-.1 0-.1.1-.1h.6s.1 0 .1.1M6.9 23.7v.5c0 .1 0 .1-.1.1h-.6c-.1 0-.1-.1-.1-.1v-.5c0-.1 0-.1.1-.1h.6l.1.1M6.9 26.4v.5c0 .1 0 .1-.1.1h-.6c-.1 0-.1-.1-.1-.1v-.5c0-.1 0-.1.1-.1h.6c0-.1.1 0 .1.1M6.9 27.7v.5c0 .1 0 .1-.1.1h-.6c-.1 0-.1-.1-.1-.1v-.5c0-.1 0-.1.1-.1h.6s.1 0 .1.1M6.9 29v.5c0 .1 0 .1-.1.1h-.6c-.1 0-.1-.1-.1-.1V29c0-.1 0-.1.1-.1h.6s.1 0 .1.1M6.9 32.9v.5c0 .1 0 .1-.1.1h-.6c-.1 0-.1-.1-.1-.1v-.5c0-.1 0-.1.1-.1h.6l.1.1M6.9 36.9v.5c0 .1 0 .1-.1.1h-.6c-.1 0-.1-.1-.1-.1v-.5c0-.1 0-.1.1-.1h.6s.1 0 .1.1M6.9 43.5v.5c0 .1 0 .1-.1.1h-.6c-.1 0-.1-.1-.1-.1v-.5c0-.1 0-.1.1-.1h.6s.1 0 .1.1M6.9 17.1v.5c0 .1 0 .1-.1.1h-.6c-.1 0-.1-.1-.1-.1v-.5c0-.1 0-.1.1-.1h.6l.1.1M6.9 39.5v.5c0 .1 0 .1-.1.1h-.6c-.1 0-.1-.1-.1-.1v-.5c0-.1 0-.1.1-.1h.6l.1.1M6.9 46.1v.5c0 .1 0 .1-.1.1h-.6c-.1 0-.1-.1-.1-.1v-.5c0-.1 0-.1.1-.1h.6l.1.1M5.6 18.4v.6c0 .1 0 .1-.1.1H5c-.1 0-.1-.1-.1-.1v-.5c0-.1 0-.1.1-.1h.6c0-.1 0 0 0 0M5.6 19.8v.5c0 .1 0 .1-.1.1H5c-.1 0-.1-.1-.1-.1v-.5c0-.1 0-.1.1-.1h.6v.1M5.6 21.1v.5c0 .1 0 .1-.1.1H5c-.1 0-.1-.1-.1-.1v-.5c0-.1 0-.1.1-.1h.6v.1M5.6 22.4v.5c0 .1 0 .1-.1.1H5c-.1 0-.1-.1-.1-.1v-.5c0-.1 0-.1.1-.1h.6v.1M5.6 23.7v.5c0 .1 0 .1-.1.1H5c-.1 0-.1-.1-.1-.1v-.5c0-.1 0-.1.1-.1h.6v.1M5.6 26.4v.5c0 .1 0 .1-.1.1H5c-.1 0-.1-.1-.1-.1v-.5c0-.1 0-.1.1-.1h.6v.1M5.6 27.7v.5c0 .1 0 .1-.1.1H5c-.1 0-.1-.1-.1-.1v-.5c0-.1 0-.1.1-.1h.6v.1M5.6 29v.5c0 .1 0 .1-.1.1H5c-.1 0-.1-.1-.1-.1V29c0-.1 0-.1.1-.1h.6v.1M5.6 30.3v.5c0 .1 0 .1-.1.1H5c-.1 0-.1-.1-.1-.1v-.5c0-.1 0-.1.1-.1h.6v.1M5.6 31.6v.5c0 .1 0 .1-.1.1H5c-.1 0-.1-.1-.1-.1v-.5c0-.1 0-.1.1-.1h.6v.1M5.6 32.9v.5c0 .1 0 .1-.1.1H5c-.1 0-.1-.1-.1-.1v-.5c0-.1 0-.1.1-.1h.6v.1M5.6 34.3v.5c0 .1 0 .1-.1.1H5c-.1 0-.1-.1-.1-.1v-.5c0-.1 0-.1.1-.1h.6v.1M5.6 36.9v.5c0 .1 0 .1-.1.1H5c-.1 0-.1-.1-.1-.1v-.5c0-.1 0-.1.1-.1h.6v.1M5.6 42.2v.5c0 .1 0 .1-.1.1H5c-.1 0-.1-.1-.1-.1v-.5c0-.1 0-.1.1-.1h.6v.1M5.6 43.5v.5c0 .1 0 .1-.1.1H5c-.1 0-.1-.1-.1-.1v-.5c0-.1 0-.1.1-.1h.6v.1M5.6 44.8v.5c0 .1 0 .1-.1.1H5c-.1 0-.1-.1-.1-.1v-.5c0-.1 0-.1.1-.1h.6v.1M5.6 17.1v.5c0 .1 0 .1-.1.1H5c-.1 0-.1-.1-.1-.1v-.5c0-.1 0-.1.1-.1h.6v.1M5.6 35.6v.5c0 .1 0 .1-.1.1H5c-.1 0-.1-.1-.1-.1v-.5c0-.1 0-.1.1-.1h.6v.1M4.4 21.1v.5c0 .1 0 .1-.1.1h-.5c-.1 0-.1-.1-.1-.1v-.5c0-.1 0-.1.1-.1h.6v.1M4.4 22.4v.5c0 .1 0 .1-.1.1h-.5c-.1 0-.1-.1-.1-.1v-.5c0-.1 0-.1.1-.1h.6v.1M4.4 23.7v.5c0 .1 0 .1-.1.1h-.5c-.1 0-.1-.1-.1-.1v-.5c0-.1 0-.1.1-.1h.6v.1M4.4 25v.5c0 .1 0 .1-.1.1h-.5c-.1 0-.1-.1-.1-.1V25c0-.1 0-.1.1-.1h.6v.1M4.4 27.7v.5c0 .1 0 .1-.1.1h-.5c-.1 0-.1-.1-.1-.1v-.5c0-.1 0-.1.1-.1h.6v.1M4.4 30.3v.5c0 .1 0 .1-.1.1h-.5c-.1 0-.1-.1-.1-.1v-.5c0-.1 0-.1.1-.1h.6v.1M4.4 31.6v.5c0 .1 0 .1-.1.1h-.5c-.1 0-.1-.1-.1-.1v-.5c0-.1 0-.1.1-.1h.6v.1M4.4 36.9v.5c0 .1 0 .1-.1.1h-.5c-.1 0-.1-.1-.1-.1v-.5c0-.1 0-.1.1-.1h.6v.1M4.4 40.8v.5c0 .1 0 .1-.1.1h-.5c-.1 0-.1-.1-.1-.1v-.5c0-.1 0-.1.1-.1h.6v.1M4.4 46.1v.5c0 .1 0 .1-.1.1h-.5c-.1 0-.1-.1-.1-.1v-.5c0-.1 0-.1.1-.1h.6v.1M3.2 22.4v.5c0 .1 0 .1-.1.1h-.6c-.1 0-.1-.1-.1-.1v-.5c0-.1 0-.1.1-.1h.6c.1 0 .1 0 .1.1M3.2 23.7v.5c0 .1 0 .1-.1.1h-.6c-.1 0-.1-.1-.1-.1v-.5c0-.1 0-.1.1-.1h.6c.1 0 .1.1.1.1M3.2 25v.5c0 .1 0 .1-.1.1h-.6c-.1 0-.1-.1-.1-.1V25c0-.1 0-.1.1-.1h.6c.1 0 .1.1.1.1M3.2 26.4v.5c0 .1 0 .1-.1.1h-.6c-.1 0-.1-.1-.1-.1v-.5c0-.1 0-.1.1-.1h.6c.1-.1.1 0 .1.1M3.2 29v.5c0 .1 0 .1-.1.1h-.6c-.1 0-.1-.1-.1-.1V29c0-.1 0-.1.1-.1h.6c.1 0 .1 0 .1.1M3.2 32.9v.5c0 .1 0 .1-.1.1h-.6c-.1 0-.1-.1-.1-.1v-.5c0-.1 0-.1.1-.1h.6c.1 0 .1.1.1.1M3.2 34.3v.5c0 .1 0 .1-.1.1h-.6c-.1 0-.1-.1-.1-.1v-.5c0-.1 0-.1.1-.1h.6c.1-.1.1 0 .1.1M3.2 36.9v.5c0 .1 0 .1-.1.1h-.6c-.1 0-.1-.1-.1-.1v-.5c0-.1 0-.1.1-.1h.6c.1 0 .1 0 .1.1M3.2 35.6v.5c0 .1 0 .1-.1.1h-.6c-.1 0-.1-.1-.1-.1v-.5c0-.1 0-.1.1-.1h.6c.1 0 .1 0 .1.1M4.4 18.4v.6c0 .1 0 .1-.1.1h-.5c-.1 0-.1-.1-.1-.1v-.5c0-.1 0-.1.1-.1h.6c0-.1 0 0 0 0M4.4 19.8v.5c0 .1 0 .1-.1.1h-.5c-.1 0-.1-.1-.1-.1v-.5c0-.1 0-.1.1-.1h.6v.1M4.4 17.1v.5c0 .1 0 .1-.1.1h-.5c-.1 0-.1-.1-.1-.1v-.5c0-.1 0-.1.1-.1h.6v.1M3.2 18.4v.6c0 .1 0 .1-.1.1h-.6c-.1 0-.1-.1-.1-.1v-.5c0-.1 0-.1.1-.1h.6c.1-.1.1 0 .1 0M3.2 19.8v.5c0 .1 0 .1-.1.1h-.6c-.1 0-.1-.1-.1-.1v-.5c0-.1 0-.1.1-.1h.6c.1 0 .1 0 .1.1M8.1 23.7v.5c0 .1 0 .1-.1.1h-.6c-.1 0-.1-.1-.1-.1v-.5c0-.1 0-.1.1-.1H8l.1.1M4.4 26.4v.5c0 .1 0 .1-.1.1h-.5c-.1 0-.1-.1-.1-.1v-.5c0-.1 0-.1.1-.1h.6v.1M4.4 29v.5c0 .1 0 .1-.1.1h-.5c-.1 0-.1-.1-.1-.1V29c0-.1 0-.1.1-.1h.6v.1M8.1 30.3v.5c0 .1-.1.2-.1.2h-.6c-.1 0-.1-.1-.1-.1v-.5c0-.1 0-.1.1-.1H8c0-.1.1 0 .1 0M3.2 31.6v.5c0 .1 0 .1-.1.1h-.6c-.1 0-.1-.1-.1-.1v-.5c0-.1 0-.1.1-.1h.6c.1 0 .1.1.1.1M4.4 34.3v.5c0 .1 0 .1-.1.1h-.5c-.1 0-.1-.1-.1-.1v-.5c0-.1 0-.1.1-.1h.6v.1M6.9 35.6v.5c0 .1 0 .1-.1.1h-.6c-.1 0-.1-.1-.1-.1v-.5c0-.1 0-.1.1-.1h.6s.1 0 .1.1M8.1 38.2v.5c0 .1 0 .1-.1.1h-.6c-.1 0-.1-.1-.1-.1v-.5c0-.1 0-.1.1-.1H8l.1.1M5.6 38.2v.5c0 .1 0 .1-.1.1H5c-.1 0-.1-.1-.1-.1v-.5c0-.1 0-.1.1-.1h.6v.1M4.4 38.2v.5c0 .1 0 .1-.1.1h-.5c-.1 0-.1-.1-.1-.1v-.5c0-.1 0-.1.1-.1h.6v.1M3.2 38.2v.5c0 .1 0 .1-.1.1h-.6c-.1 0-.1-.1-.1-.1v-.5c0-.1 0-.1.1-.1h.6c.1 0 .1.1.1.1M3.2 43.5v.5c0 .1 0 .1-.1.1h-.6c-.1 0-.1-.1-.1-.1v-.5c0-.1 0-.1.1-.1h.6c.1 0 .1 0 .1.1M3.2 44.8v.5c0 .1 0 .1-.1.1h-.6c-.1 0-.1-.1-.1-.1v-.5c0-.1 0-.1.1-.1h.6c.1 0 .1 0 .1.1M9.3 47.4v.6c0 .1 0 .1-.1.1h-.6c-.1 0-.1-.1-.1-.1v-.5c0-.1 0-.1.1-.1h.6c.1-.1.1 0 .1 0M8.1 47.4v.6c0 .1 0 .1-.1.1h-.6c-.1 0-.1-.1-.1-.1v-.5c0-.1 0-.1.1-.1H8c0-.1.1 0 .1 0M5.6 47.4v.6c0 .1 0 .1-.1.1H5c-.1 0-.1-.1-.1-.1v-.5c0-.1 0-.1.1-.1h.6c0-.1 0 0 0 0M6.9 48.8v.5c0 .1 0 .1-.1.1h-.6c-.1 0-.1-.1-.1-.1v-.5c0-.1 0-.1.1-.1h.6c0-.1.1 0 .1.1M4.4 48.8v.5c0 .1 0 .1-.1.1h-.5c-.1 0-.1-.1-.1-.1v-.5c0-.1 0-.1.1-.1h.6v.1M9.3 50.1v.5c0 .1 0 .1-.1.1h-.6c-.1 0-.1-.1-.1-.1v-.5c0-.1 0-.1.1-.1h.6c.1 0 .1 0 .1.1M2 18.4v.6c0 .1 0 .1-.1.1h-.6c-.1 0-.1-.1-.1-.1v-.5c0-.1 0-.1.1-.1h.6c0-.1.1 0 .1 0M2 19.8v.5c0 .1 0 .1-.1.1h-.6c-.1 0-.1-.1-.1-.1v-.5c0-.1 0-.1.1-.1h.6s.1 0 .1.1M2 21.1v.5c0 .1 0 .1-.1.1h-.6c-.1 0-.1-.1-.1-.1v-.5c0-.1 0-.1.1-.1h.6s.1 0 .1.1M2 22.4v.5c0 .1 0 .1-.1.1h-.6c-.1 0-.1-.1-.1-.1v-.5c0-.1 0-.1.1-.1h.6s.1 0 .1.1M2 23.7v.5c0 .1 0 .1-.1.1h-.6c-.1 0-.1-.1-.1-.1v-.5c0-.1 0-.1.1-.1h.6l.1.1M2 25v.5c0 .1 0 .1-.1.1h-.6c-.1 0-.1-.1-.1-.1V25c0-.1 0-.1.1-.1h.6l.1.1M2 27.7v.5c0 .1 0 .1-.1.1h-.6c-.1 0-.1-.1-.1-.1v-.5c0-.1 0-.1.1-.1h.6s.1 0 .1.1M2 29v.5c0 .1 0 .1-.1.1h-.6c-.1 0-.1-.1-.1-.1V29c0-.1 0-.1.1-.1h.6s.1 0 .1.1M2 32.9v.5c0 .1 0 .1-.1.1h-.6c-.1 0-.1-.1-.1-.1v-.5c0-.1 0-.1.1-.1h.6l.1.1M2 43.5v.5c0 .1 0 .1-.1.1h-.6c-.1 0-.1-.1-.1-.1v-.5c0-.1 0-.1.1-.1h.6s.1 0 .1.1M2 40.8v.5c0 .1 0 .1-.1.1h-.6c-.1 0-.1-.1-.1-.1v-.5c0-.1 0-.1.1-.1h.6l.1.1M2 46.1v.5c0 .1 0 .1-.1.1h-.6c-.1 0-.1-.1-.1-.1v-.5c0-.1 0-.1.1-.1h.6l.1.1M2 39.5v.5c0 .1 0 .1-.1.1h-.6c-.1 0-.1-.1-.1-.1v-.5c0-.1 0-.1.1-.1h.6l.1.1M.8 22.4v.5c0 .1 0 .1-.1.1H.1c-.1.1-.1 0-.1-.1v-.5c0-.1 0-.1.1-.1h.6s.1 0 .1.1M.8 23.7v.5c0 .1 0 .1-.1.1H.1c-.1.1-.1 0-.1 0v-.5c0-.1 0-.1.1-.1h.6c0-.1.1 0 .1 0M.8 25v.5c0 .1 0 .1-.1.1H.1c-.1.1-.1 0-.1 0V25c0-.1 0-.1.1-.1h.6l.1.1M.8 26.4v.5c0 .1 0 .1-.1.1H.1c-.1 0-.1 0-.1-.1v-.5c0-.1 0-.1.1-.1h.6c0-.1.1 0 .1.1M.8 27.7v.5c0 .1 0 .1-.1.1H.1c-.1 0-.1 0-.1-.1v-.5c0-.1 0-.1.1-.1h.6s.1 0 .1.1M.8 29v.5c0 .1 0 .1-.1.1H.1c-.1 0-.1 0-.1-.1V29c0-.1 0-.1.1-.1h.6s.1 0 .1.1M.8 30.3v.5c0 .1 0 .1-.1.1H.1c-.1.1-.1 0-.1 0v-.5c0-.1 0-.1.1-.1h.6c0-.1.1 0 .1 0M.8 31.6v.5c0 .1 0 .1-.1.1H.1c-.1.1-.1 0-.1 0v-.5c0-.1 0-.1.1-.1h.6c0-.1.1 0 .1 0M.8 34.3v.5c0 .1 0 .1-.1.1H.1c-.1 0-.1 0-.1-.1v-.5c0-.1 0-.1.1-.1h.6c0-.1.1 0 .1.1M.8 42.2v.5c0 .1 0 .1-.1.1H.1c-.1 0-.1 0-.1-.1v-.5c0-.1 0-.1.1-.1h.6s.1 0 .1.1M.8 35.6v.5c0 .1 0 .1-.1.1H.1c-.1 0-.1 0-.1-.1v-.5c0-.1 0-.1.1-.1h.6s.1 0 .1.1M.8 40.8v.5c0 .1 0 .1-.1.1H.1c-.1.1-.1 0-.1 0v-.5c0-.1 0-.1.1-.1h.6c0-.1.1 0 .1 0M2 31.6v.5c0 .1 0 .1-.1.1h-.6c-.1 0-.1-.1-.1-.1v-.5c0-.1 0-.1.1-.1h.6l.1.1M2 35.6v.5c0 .1 0 .1-.1.1h-.6c-.1 0-.1-.1-.1-.1v-.5c0-.1 0-.1.1-.1h.6s.1 0 .1.1M2 38.2v.5c0 .1 0 .1-.1.1h-.6c-.1 0-.1-.1-.1-.1v-.5c0-.1 0-.1.1-.1h.6l.1.1"/><path class="st0" d="M33.9 49.3c0-.2.1-.3.3-.3h.8c.2 0 .3.1.3.3v.8c0 .2-.1.3-.3.3h-.8c-.2 0-.3-.1-.3-.3v-.8zm1.8-1.8c0-.2.1-.3.3-.3h.8c.2 0 .3.1.3.3v.8c0 .2-.1.3-.3.3H36c-.2 0-.3-.1-.3-.3v-.8zm0 5.5c0-.2.1-.3.3-.3h.8c.2 0 .3.1.3.3v.8c0 .2-.1.3-.3.3H36c-.2 0-.3-.1-.3-.3V53zm0-1.8c0-.2.1-.3.3-.3h.8c.2 0 .3.1.3.3v.8c0 .2-.1.3-.3.3H36c-.2 0-.3-.1-.3-.3v-.8zm0-16.5c0-.2.1-.3.3-.3h.8c.2 0 .3.1.3.3v.8c0 .2-.1.3-.3.3H36c-.2 0-.3-.1-.3-.3v-.8zm0-1.9c0-.2.1-.3.3-.3h.8c.2 0 .3.1.3.3v.8c0 .2-.1.3-.3.3H36c-.2 0-.3-.1-.3-.3v-.8zm0-3.6c0-.2.1-.3.3-.3h.8c.2 0 .3.1.3.3v.8c0 .2-.1.3-.3.3H36c-.2 0-.3-.1-.3-.3v-.8zm0 12.8c0-.2.1-.3.3-.3h.8c.2 0 .3.1.3.3v.8c0 .2-.1.3-.3.3H36c-.2 0-.3-.1-.3-.3V42zm0-1.8c0-.2.1-.3.3-.3h.8c.2 0 .3.1.3.3v.8c0 .2-.1.3-.3.3H36c-.2 0-.3-.1-.3-.3v-.8zm0-1.9c0-.2.1-.3.3-.3h.8c.2 0 .3.1.3.3v.8c0 .2-.1.3-.3.3H36c-.2 0-.3-.1-.3-.3v-.8zm0-7.3c0-.2.1-.3.3-.3h.8c.2 0 .3.1.3.3v.8c0 .2-.1.3-.3.3H36c-.2 0-.3-.1-.3-.3V31zm0-3.7c0-.2.1-.3.3-.3h.8c.2 0 .3.1.3.3v.8c0 .2-.1.3-.3.3H36c-.2 0-.3-.1-.3-.3v-.8zm0-1.8c0-.2.1-.3.3-.3h.8c.2 0 .3.1.3.3v.8c0 .2-.1.3-.3.3H36c-.2 0-.3-.1-.3-.3v-.8zm0-1.8c0-.2.1-.3.3-.3h.8c.2 0 .3.1.3.3v.8c0 .2-.1.3-.3.3H36c-.2 0-.3-.1-.3-.3v-.8zm0-1.9c0-.2.1-.3.3-.3h.8c.2 0 .3.1.3.3v.8c0 .2-.1.3-.3.3H36c-.2 0-.3-.1-.3-.3v-.8zm0-1.8c0-.2.1-.3.3-.3h.8c.2 0 .3.1.3.3v.8c0 .2-.1.3-.3.3H36c-.2 0-.3-.1-.3-.3V20zm0-1.8c0-.2.1-.3.3-.3h.8c.2 0 .3.1.3.3v.8c0 .2-.1.3-.3.3H36c-.2 0-.3-.1-.3-.3v-.8zm0-1.9c0-.2.1-.3.3-.3h.8c.2 0 .3.1.3.3v.8c0 .2-.1.3-.3.3H36c-.2 0-.3-.1-.3-.3v-.8zm0-1.8c0-.2.1-.3.3-.3h.8c.2 0 .3.1.3.3v.8c0 .2-.1.3-.3.3H36c-.2 0-.3-.1-.3-.3v-.8zm0-1.8c0-.2.1-.3.3-.3h.8c.2 0 .3.1.3.3v.8c0 .2-.1.3-.3.3H36c-.2 0-.3-.1-.3-.3v-.8zm0-1.9c0-.2.1-.3.3-.3h.8c.2 0 .3.1.3.3v.8c0 .2-.1.3-.3.3H36c-.2 0-.3-.1-.3-.3v-.8zm0-1.8c0-.2.1-.3.3-.3h.8c.2 0 .3.1.3.3v.8c0 .2-.1.3-.3.3H36c-.2 0-.3-.1-.3-.3V9zm0-1.8c0-.2.1-.3.3-.3h.8c.2 0 .3.1.3.3V8c0 .2-.1.3-.3.3H36c-.2 0-.3-.1-.3-.3v-.8zm0-1.9c0-.1.1-.3.3-.3h.8c.2 0 .3.1.3.3v.8c0 .2-.1.3-.3.3H36c-.2 0-.3-.1-.3-.3v-.8zm-1.8 29.4c0-.2.1-.3.3-.3h.8c.2 0 .3.1.3.3v.8c0 .2-.1.3-.3.3h-.8c-.2 0-.3-.1-.3-.3v-.8zm0 9.1c0-.2.1-.3.3-.3h.8c.2 0 .3.1.3.3v.8c0 .2-.1.3-.3.3h-.8c-.2 0-.3-.1-.3-.3v-.8zm0-7.3c0-.2.1-.3.3-.3h.8c.2 0 .3.1.3.3v.8c0 .2-.1.3-.3.3h-.8c-.2 0-.3-.1-.3-.3v-.8zm0-33c0-.2.1-.3.3-.3h.8c.2 0 .3.1.3.3v.8c0 .2-.1.3-.3.3h-.8c-.2 0-.3-.1-.3-.3v-.8zm0 34.8c0-.2.1-.3.3-.3h.8c.2 0 .3.1.3.3v.8c0 .2-.1.3-.3.3h-.8c-.2 0-.3-.1-.3-.3v-.8zm0-7.3c0-.2.1-.3.3-.3h.8c.2 0 .3.1.3.3v.8c0 .2-.1.3-.3.3h-.8c-.2 0-.3-.1-.3-.3V31zm0-3.7c0-.2.1-.3.3-.3h.8c.2 0 .3.1.3.3v.8c0 .2-.1.3-.3.3h-.8c-.2 0-.3-.1-.3-.3v-.8zm0-1.8c0-.2.1-.3.3-.3h.8c.2 0 .3.1.3.3v.8c0 .2-.1.3-.3.3h-.8c-.2 0-.3-.1-.3-.3v-.8zm0-1.8c0-.2.1-.3.3-.3h.8c.2 0 .3.1.3.3v.8c0 .2-.1.3-.3.3h-.8c-.2 0-.3-.1-.3-.3v-.8zm0-1.9c0-.2.1-.3.3-.3h.8c.2 0 .3.1.3.3v.8c0 .2-.1.3-.3.3h-.8c-.2 0-.3-.1-.3-.3v-.8zm0-1.8c0-.2.1-.3.3-.3h.8c.2 0 .3.1.3.3v.8c0 .2-.1.3-.3.3h-.8c-.2 0-.3-.1-.3-.3V20zm0-1.8c0-.2.1-.3.3-.3h.8c.2 0 .3.1.3.3v.8c0 .2-.1.3-.3.3h-.8c-.2 0-.3-.1-.3-.3v-.8zm0-1.9c0-.2.1-.3.3-.3h.8c.2 0 .3.1.3.3v.8c0 .2-.1.3-.3.3h-.8c-.2 0-.3-.1-.3-.3v-.8zm0-1.8c0-.2.1-.3.3-.3h.8c.2 0 .3.1.3.3v.8c0 .2-.1.3-.3.3h-.8c-.2 0-.3-.1-.3-.3v-.8zm0-1.8c0-.2.1-.3.3-.3h.8c.2 0 .3.1.3.3v.8c0 .2-.1.3-.3.3h-.8c-.2 0-.3-.1-.3-.3v-.8zm0-3.7c0-.2.1-.3.3-.3h.8c.2 0 .3.1.3.3v.8c0 .2-.1.3-.3.3h-.8c-.2 0-.3-.1-.3-.3V9zm0-1.8c0-.2.1-.3.3-.3h.8c.2 0 .3.1.3.3V8c0 .2-.1.3-.3.3h-.8c-.2 0-.3-.1-.3-.3v-.8zm0-1.9c0-.1.1-.3.3-.3h.8c.2 0 .3.1.3.3v.8c0 .2-.1.3-.3.3h-.8c-.2 0-.3-.1-.3-.3v-.8zM32 36.5c0-.2.1-.3.3-.3h.8c.2 0 .3.1.3.3v.8c0 .2-.1.3-.3.3h-.8c-.2 0-.3-.1-.3-.3v-.8zm0-3.7c0-.2.1-.3.3-.3h.8c.2 0 .3.1.3.3v.8c0 .2-.1.3-.3.3h-.8c-.2 0-.3-.1-.3-.3v-.8zm0-3.6c0-.2.1-.3.3-.3h.8c.2 0 .3.1.3.3v.8c0 .2-.1.3-.3.3h-.8c-.2 0-.3-.1-.3-.3v-.8zm0 11c0-.2.1-.3.3-.3h.8c.2 0 .3.1.3.3v.8c0 .2-.1.3-.3.3h-.8c-.2 0-.3-.1-.3-.3v-.8zm0-9.2c0-.2.1-.3.3-.3h.8c.2 0 .3.1.3.3v.8c0 .2-.1.3-.3.3h-.8c-.2 0-.3-.1-.3-.3V31zm0-3.7c0-.2.1-.3.3-.3h.8c.2 0 .3.1.3.3v.8c0 .2-.1.3-.3.3h-.8c-.2 0-.3-.1-.3-.3v-.8zm0-3.6c0-.2.1-.3.3-.3h.8c.2 0 .3.1.3.3v.8c0 .2-.1.3-.3.3h-.8c-.2 0-.3-.1-.3-.3v-.8zm0-3.7c0-.2.1-.3.3-.3h.8c.2 0 .3.1.3.3v.8c0 .2-.1.3-.3.3h-.8c-.2 0-.3-.1-.3-.3V20zm0-1.8c0-.2.1-.3.3-.3h.8c.2 0 .3.1.3.3v.8c0 .2-.1.3-.3.3h-.8c-.2 0-.3-.1-.3-.3v-.8zm0-1.9c0-.2.1-.3.3-.3h.8c.2 0 .3.1.3.3v.8c0 .2-.1.3-.3.3h-.8c-.2 0-.3-.1-.3-.3v-.8zm0-1.8c0-.2.1-.3.3-.3h.8c.2 0 .3.1.3.3v.8c0 .2-.1.3-.3.3h-.8c-.2 0-.3-.1-.3-.3v-.8zm0-1.8c0-.2.1-.3.3-.3h.8c.2 0 .3.1.3.3v.8c0 .2-.1.3-.3.3h-.8c-.2 0-.3-.1-.3-.3v-.8zm0-1.9c0-.2.1-.3.3-.3h.8c.2 0 .3.1.3.3v.8c0 .2-.1.3-.3.3h-.8c-.2 0-.3-.1-.3-.3v-.8zM32 9c0-.2.1-.3.3-.3h.8c.2 0 .3.1.3.3v.8c0 .2-.1.3-.3.3h-.8c-.1-.1-.3-.2-.3-.3V9zm0-1.8c0-.2.1-.3.3-.3h.8c.2 0 .3.1.3.3V8c0 .2-.1.3-.3.3h-.8c-.2 0-.3-.1-.3-.3v-.8zm0-1.9c0-.1.2-.3.3-.3h.8c.2 0 .3.1.3.3v.8c0 .2-.1.3-.3.3h-.8c-.2 0-.3-.1-.3-.3v-.8zm-1.8 29.4c0-.2.1-.3.3-.3h.8c.2 0 .3.1.3.3v.8c0 .2-.1.3-.3.3h-.8c-.2 0-.3-.1-.3-.3v-.8zm0 9.1c0-.2.1-.3.3-.3h.8c.2 0 .3.1.3.3v.8c0 .2-.1.3-.3.3h-.8c-.2 0-.3-.1-.3-.3v-.8zm0-7.3c0-.2.1-.3.3-.3h.8c.2 0 .3.1.3.3v.8c0 .2-.1.3-.3.3h-.8c-.2 0-.3-.1-.3-.3v-.8zm0-3.7c0-.2.1-.3.3-.3h.8c.2 0 .3.1.3.3v.8c0 .2-.1.3-.3.3h-.8c-.2 0-.3-.1-.3-.3v-.8zm0-3.6c0-.2.1-.3.3-.3h.8c.2 0 .3.1.3.3v.8c0 .2-.1.3-.3.3h-.8c-.2 0-.3-.1-.3-.3v-.8zm0-25.7c0-.2.1-.3.3-.3h.8c.2 0 .3.1.3.3v.8c0 .2-.1.3-.3.3h-.8c-.2 0-.3-.1-.3-.3v-.8zm0 38.5c0-.2.1-.3.3-.3h.8c.2 0 .3.1.3.3v.8c0 .2-.1.3-.3.3h-.8c-.2 0-.3-.1-.3-.3V42zm0-1.8c0-.2.1-.3.3-.3h.8c.2 0 .3.1.3.3v.8c0 .2-.1.3-.3.3h-.8c-.2 0-.3-.1-.3-.3v-.8zm0-1.9c0-.2.1-.3.3-.3h.8c.2 0 .3.1.3.3v.8c0 .2-.1.3-.3.3h-.8c-.2 0-.3-.1-.3-.3v-.8zm0-11c0-.2.1-.3.3-.3h.8c.2 0 .3.1.3.3v.8c0 .2-.1.3-.3.3h-.8c-.2 0-.3-.1-.3-.3v-.8zm0-1.8c0-.2.1-.3.3-.3h.8c.2 0 .3.1.3.3v.8c0 .2-.1.3-.3.3h-.8c-.2 0-.3-.1-.3-.3v-.8zm0-1.8c0-.2.1-.3.3-.3h.8c.2 0 .3.1.3.3v.8c0 .2-.1.3-.3.3h-.8c-.2 0-.3-.1-.3-.3v-.8zm0-3.7c0-.2.1-.3.3-.3h.8c.2 0 .3.1.3.3v.8c0 .2-.1.3-.3.3h-.8c-.2 0-.3-.1-.3-.3V20zm0-1.8c0-.2.1-.3.3-.3h.8c.2 0 .3.1.3.3v.8c0 .2-.1.3-.3.3h-.8c-.2 0-.3-.1-.3-.3v-.8zm0-1.9c0-.2.1-.3.3-.3h.8c.2 0 .3.1.3.3v.8c0 .2-.1.3-.3.3h-.8c-.2 0-.3-.1-.3-.3v-.8zm0-3.6c0-.2.1-.3.3-.3h.8c.2 0 .3.1.3.3v.8c0 .2-.1.3-.3.3h-.8c-.2 0-.3-.1-.3-.3v-.8zm0-1.9c0-.2.1-.3.3-.3h.8c.2 0 .3.1.3.3v.8c0 .2-.1.3-.3.3h-.8c-.2 0-.3-.1-.3-.3v-.8zm0-3.6c0-.2.1-.3.3-.3h.8c.2 0 .3.1.3.3V8c0 .2-.1.3-.3.3h-.8c-.2 0-.3-.1-.3-.3v-.8zm0-1.9c0-.2.1-.3.3-.3h.8c.2 0 .3.1.3.3v.8c0 .2-.1.3-.3.3h-.8c-.2 0-.3-.1-.3-.3v-.8zm-1.8 23.9c0-.2.1-.3.3-.3h.8c.2 0 .3.1.3.3v.8c0 .2-.1.3-.3.3h-.8c-.2 0-.3-.1-.3-.3v-.8zm0-25.7c0-.2.1-.3.3-.3h.8c.2 0 .3.1.3.3v.8c0 .2-.1.3-.3.3h-.8c-.2 0-.3-.1-.3-.3v-.8zm0 27.5c0-.2.1-.3.3-.3h.8c.2 0 .3.1.3.3v.8c0 .2-.1.3-.3.3h-.8c-.2 0-.3-.1-.3-.3V31zm0-3.7c0-.2.1-.3.3-.3h.8c.2 0 .3.1.3.3v.8c0 .2-.1.3-.3.3h-.8c-.2 0-.3-.1-.3-.3v-.8zm0-1.8c0-.2.1-.3.3-.3h.8c.2 0 .3.1.3.3v.8c0 .2-.1.3-.3.3h-.8c-.2 0-.3-.1-.3-.3v-.8zm0-1.8c0-.2.1-.3.3-.3h.8c.2 0 .3.1.3.3v.8c0 .2-.1.3-.3.3h-.8c-.2 0-.3-.1-.3-.3v-.8zm0-1.9c0-.2.1-.3.3-.3h.8c.2 0 .3.1.3.3v.8c0 .2-.1.3-.3.3h-.8c-.2 0-.3-.1-.3-.3v-.8zm0-1.8c0-.2.1-.3.3-.3h.8c.2 0 .3.1.3.3v.8c0 .2-.1.3-.3.3h-.8c-.2 0-.3-.1-.3-.3V20zm0-3.7c0-.2.1-.3.3-.3h.8c.2 0 .3.1.3.3v.8c0 .2-.1.3-.3.3h-.8c-.2 0-.3-.1-.3-.3v-.8zm0-1.8c0-.2.1-.3.3-.3h.8c.2 0 .3.1.3.3v.8c0 .2-.1.3-.3.3h-.8c-.2 0-.3-.1-.3-.3v-.8zm0-1.8c0-.2.1-.3.3-.3h.8c.2 0 .3.1.3.3v.8c0 .2-.1.3-.3.3h-.8c-.2 0-.3-.1-.3-.3v-.8zm0-1.9c0-.2.1-.3.3-.3h.8c.2 0 .3.1.3.3v.8c0 .2-.1.3-.3.3h-.8c-.2 0-.3-.1-.3-.3v-.8zm0-1.8c0-.2.1-.3.3-.3h.8c.2 0 .3.1.3.3v.8c0 .2-.1.3-.3.3h-.8c-.2 0-.3-.1-.3-.3V9zm0-3.7c0-.2.1-.3.3-.3h.8c.2 0 .3.1.3.3v.8c0 .2-.1.3-.3.3h-.8c-.2 0-.3-.1-.3-.3v-.8zm-1.8 29.4c0-.2.1-.3.3-.3h.8c.2 0 .3.1.3.3v.8c0 .2-.1.3-.3.3h-.8c-.2 0-.3-.1-.3-.3v-.8zm0 1.8c0-.2.1-.3.3-.3h.8c.2 0 .3.1.3.3v.8c0 .2-.1.3-.3.3h-.8c-.2 0-.3-.1-.3-.3v-.8zm0-3.7c0-.2.1-.3.3-.3h.8c.2 0 .3.1.3.3v.8c0 .2-.1.3-.3.3h-.8c-.2 0-.3-.1-.3-.3v-.8zm0-3.6c0-.2.1-.3.3-.3h.8c.2 0 .3.1.3.3v.8c0 .2-.1.3-.3.3h-.8c-.2 0-.3-.1-.3-.3v-.8zm0-25.7c0-.2.1-.3.3-.3h.8c.2 0 .3.1.3.3v.8c0 .2-.1.3-.3.3h-.8c-.2 0-.3-.1-.3-.3v-.8zm0 22c0-.2.1-.3.3-.3h.8c.2 0 .3.1.3.3v.8c0 .2-.1.3-.3.3h-.8c-.2 0-.3-.1-.3-.3v-.8zm0-1.8c0-.2.1-.3.3-.3h.8c.2 0 .3.1.3.3v.8c0 .2-.1.3-.3.3h-.8c-.2 0-.3-.1-.3-.3v-.8zm0-1.9c0-.2.1-.3.3-.3h.8c.2 0 .3.1.3.3v.8c0 .2-.1.3-.3.3h-.8c-.2 0-.3-.1-.3-.3v-.8zm0-1.8c0-.2.1-.3.3-.3h.8c.2 0 .3.1.3.3v.8c0 .2-.1.3-.3.3h-.8c-.2 0-.3-.1-.3-.3V20zm0-1.8c0-.2.1-.3.3-.3h.8c.2 0 .3.1.3.3v.8c0 .2-.1.3-.3.3h-.8c-.2 0-.3-.1-.3-.3v-.8zm0-1.9c0-.2.1-.3.3-.3h.8c.2 0 .3.1.3.3v.8c0 .2-.1.3-.3.3h-.8c-.2 0-.3-.1-.3-.3v-.8zm0-1.8c0-.2.1-.3.3-.3h.8c.2 0 .3.1.3.3v.8c0 .2-.1.3-.3.3h-.8c-.2 0-.3-.1-.3-.3v-.8zm0-3.7c0-.2.1-.3.3-.3h.8c.2 0 .3.1.3.3v.8c0 .2-.1.3-.3.3h-.8c-.2 0-.3-.1-.3-.3v-.8zm0-1.8c0-.2.1-.3.3-.3h.8c.2 0 .3.1.3.3v.8c0 .2-.1.3-.3.3h-.8c-.2 0-.3-.1-.3-.3V9zm0-3.7c0-.2.1-.3.3-.3h.8c.2 0 .3.2.3.3v.8c0 .2-.1.3-.3.3h-.8c-.2 0-.3-.1-.3-.3v-.8zm-1.8 29.4c0-.2.1-.3.3-.3h.8c.2 0 .3.1.3.3v.8c0 .2-.1.3-.3.3h-.8c-.2 0-.3-.1-.3-.3v-.8zm0-1.9c0-.2.1-.3.3-.3h.8c.2 0 .3.1.3.3v.8c0 .2-.1.3-.3.3h-.8c-.2 0-.3-.1-.3-.3v-.8zm0-3.6c0-.2.1-.3.3-.3h.8c.2 0 .3.1.3.3v.8c0 .2-.1.3-.3.3h-.8c-.2 0-.3-.1-.3-.3v-.8zm0 1.8c0-.2.1-.3.3-.3h.8c.2 0 .3.1.3.3v.8c0 .2-.1.3-.3.3h-.8c-.2 0-.3-.1-.3-.3V31zm0-7.3c0-.2.1-.3.3-.3h.8c.2 0 .3.1.3.3v.8c0 .2-.1.3-.3.3h-.8c-.2 0-.3-.1-.3-.3v-.8zm0-1.9c0-.2.1-.3.3-.3h.8c.2 0 .3.1.3.3v.8c0 .2-.1.3-.3.3h-.8c-.2 0-.3-.1-.3-.3v-.8zm0-1.8c0-.2.1-.3.3-.3h.8c.2 0 .3.1.3.3v.8c0 .2-.1.3-.3.3h-.8c-.2 0-.3-.1-.3-.3V20zm0-1.8c0-.2.1-.3.3-.3h.8c.2 0 .3.1.3.3v.8c0 .2-.1.3-.3.3h-.8c-.2 0-.3-.1-.3-.3v-.8zm0-1.9c0-.2.1-.3.3-.3h.8c.2 0 .3.1.3.3v.8c0 .2-.1.3-.3.3h-.8c-.2 0-.3-.1-.3-.3v-.8zm0-1.8c0-.2.1-.3.3-.3h.8c.2 0 .3.1.3.3v.8c0 .2-.1.3-.3.3h-.8c-.2 0-.3-.1-.3-.3v-.8zm0-1.8c0-.2.1-.3.3-.3h.8c.2 0 .3.1.3.3v.8c0 .2-.1.3-.3.3h-.8c-.2 0-.3-.1-.3-.3v-.8zm0-1.9c0-.2.1-.3.3-.3h.8c.2 0 .3.1.3.3v.8c0 .2-.1.3-.3.3h-.8c-.2 0-.3-.1-.3-.3v-.8zm0-1.8c0-.2.1-.3.3-.3h.8c.2 0 .3.1.3.3v.8c0 .2-.1.3-.3.3h-.8c-.2 0-.3-.1-.3-.3V9zm0-1.8c0-.2.1-.3.3-.3h.8c.2 0 .3.1.3.3V8c0 .2-.1.3-.3.3h-.8c-.2 0-.3-.1-.3-.3v-.8zm0-1.9c0-.2.1-.3.3-.3h.8c.2 0 .3.1.3.3v.8c0 .2-.1.3-.3.3h-.8c-.2 0-.3-.1-.3-.3v-.8zm-1.8 0c0-.1.1-.3.3-.3h.8c.2 0 .3.1.3.3v.8c0 .2-.1.3-.3.3h-.8c-.2 0-.3-.1-.3-.3v-.8zm0 1.9c0-.2.1-.3.3-.3h.8c.2 0 .3.1.3.3V8c0 .2-.1.3-.3.3h-.8c-.2 0-.3-.1-.3-.3v-.8zM23 9c0-.2.1-.3.3-.3h.8c.2 0 .3.1.3.3v.8c0 .2-.1.3-.3.3h-.8c-.2-.1-.3-.2-.3-.3V9zm0 1.8c0-.2.1-.3.3-.3h.8c.2 0 .3.1.3.3v.8c0 .2-.1.3-.3.3h-.8c-.2 0-.3-.1-.3-.3v-.8zm0 1.9c0-.2.1-.3.3-.3h.8c.2 0 .3.1.3.3v.8c0 .2-.1.3-.3.3h-.8c-.2 0-.3-.1-.3-.3v-.8zm0 1.8c0-.2.1-.3.3-.3h.8c.2 0 .3.1.3.3v.8c0 .2-.1.3-.3.3h-.8c-.2 0-.3-.1-.3-.3v-.8zm0 1.8c0-.2.1-.3.3-.3h.8c.2 0 .3.1.3.3v.8c0 .2-.1.3-.3.3h-.8c-.2 0-.3-.1-.3-.3v-.8zm0 1.9c0-.2.1-.3.3-.3h.8c.2 0 .3.1.3.3v.8c0 .2-.1.3-.3.3h-.8c-.2 0-.3-.1-.3-.3v-.8zm0 1.8c0-.2.1-.3.3-.3h.8c.2 0 .3.1.3.3v.8c0 .2-.1.3-.3.3h-.8c-.2 0-.3-.1-.3-.3V20zm0 1.8c0-.2.1-.3.3-.3h.8c.2 0 .3.1.3.3v.8c0 .2-.1.3-.3.3h-.8c-.2 0-.3-.1-.3-.3v-.8zm0 1.9c0-.2.1-.3.3-.3h.8c.2 0 .3.1.3.3v.8c0 .2-.1.3-.3.3h-.8c-.2 0-.3-.1-.3-.3v-.8zm0 1.8c0-.2.1-.3.3-.3h.8c.2 0 .3.1.3.3v.8c0 .2-.1.3-.3.3h-.8c-.2 0-.3-.1-.3-.3v-.8zm0 1.8c0-.2.1-.3.3-.3h.8c.2 0 .3.1.3.3v.8c0 .2-.1.3-.3.3h-.8c-.2 0-.3-.1-.3-.3v-.8zm0 3.7c0-.2.1-.3.3-.3h.8c.2 0 .3.1.3.3v.8c0 .2-.1.3-.3.3h-.8c-.2 0-.3-.1-.3-.3V31zm0 7.3c0-.2.1-.3.3-.3h.8c.2 0 .3.1.3.3v.8c0 .2-.1.3-.3.3h-.8c-.2 0-.3-.1-.3-.3v-.8zm0 1.9c0-.2.1-.3.3-.3h.8c.2 0 .3.1.3.3v.8c0 .2-.1.3-.3.3h-.8c-.2 0-.3-.1-.3-.3v-.8zm0 1.8c0-.2.1-.3.3-.3h.8c.2 0 .3.1.3.3v.8c0 .2-.1.3-.3.3h-.8c-.2 0-.3-.1-.3-.3V42zm0-12.8c0-.2.1-.3.3-.3h.8c.2 0 .3.1.3.3v.8c0 .2-.1.3-.3.3h-.8c-.2 0-.3-.1-.3-.3v-.8zm0 3.6c0-.2.1-.3.3-.3h.8c.2 0 .3.1.3.3v.8c0 .2-.1.3-.3.3h-.8c-.2 0-.3-.1-.3-.3v-.8zm0 1.9c0-.2.1-.3.3-.3h.8c.2 0 .3.1.3.3v.8c0 .2-.1.3-.3.3h-.8c-.2 0-.3-.1-.3-.3v-.8zM23 53c0-.2.1-.3.3-.3h.8c.2 0 .3.1.3.3v.8c0 .2-.1.3-.3.3h-.8c-.2 0-.3-.1-.3-.3V53zm0-5.5c0-.2.1-.3.3-.3h.8c.2 0 .3.1.3.3v.8c0 .2-.1.3-.3.3h-.8c-.2 0-.3-.1-.3-.3v-.8zm17.6-4.8c-.5.2-1.7.7-2.6 1.2.6-.9 2.1-2 2.5-2.9 0-.1-.1-.1-.2-.1-.2.1-1.2 1.2-1.3 1.2-.5.2-.8.5-.9.7-.8 1-1.7 1.5-2.5 2.4-.6.1-1.3.8-1.7.7-.5.3-.9.7-1.4.7.4-2.7 2-3.8 2.4-6.5-.1 0-.1-.1-.4 0-.1 0-.2.5-.4.8-.5 1-.8 1.6-1.1 2.1-.5.8-1.2 1.5-1.4 2.4-.2.6-.3.9-.5 1.2-.1.1-.7.9-.8 1-.4.3-.2 0-.6.5-.1.2-.3.4-.5.6-.1-1.2-.2-2.4-.2-3.2.1-1 .4-2.7.5-3.7.1-.4.3-2.9.3-2.9l.3-2.4c.1-1.1 0-2.8-.1-3.1-.3 0-.3 0-.4.1-.2.3-.1 1.9-.3 2.3-.6 1.8-.5 2.7-.6 3.6-.1.7-.4.8-.5 1.5 0 .6-.5 1.1-.8 1.7-.3-.3-.4-.7-.4-1.1 0-.4-.3-1-.3-1.6 0-.6 0-1.1-.3-1.6 0-.1-.1-.1-.1-.1s0-.1-.1-.1c-.5-.6-.4-1.5-.7-1.7-.2-.1-.6 0-.6 0 .1.4.3 4.4.1 5.6 0 .1-.1.1-.1.1 0 .1 0 .2-.1.2.1.5.2 1 .2 1.5.1 2-.2 3.9-.2 6.1-1-.3-3.6-2.3-4.2-2.6-.1 0-2-2.1-3.2-2.4-.1-1-.6-2-.9-3-.1-.4 0-2.2 0-2.6-.3-.1-.4 0-.5.2 0 .1-.2 1.1-.2 1.3 0 .2-.1.9-.1 1.2 0 .2 0 .3.1.5-.4-.2-.8-.5-1-.7-.1-.1-.3.2-.2.4 0 .1.1.1.2.2.3.3.7.6 1.1 1 .1.4.1.7.2 1l-1.7-.7c-.7 0-2.6-.5-3.7-.8-.4-.6-.9-1.3-1-2.3-.4-.1-.5 0-.5.3.1.5.2 1.2.5 1.8l-1.4-.4c-1.4-.6-2.2-1.2-3.1-2.2-.2 0-.6.1-.5.5.4.5 1.4 1.4 1.9 1.7 1 .7 1.1.8 2.1 1.1.8.3 1.9.4 2.2.5.1 0 .4.1.6.1.2.1.7.2 1 .3.2.1.3.1.5.1-.5 0-.9.1-1.5.2-.2 0-.4.1-.6.1H9.5c-.2 0-.1.2.1.2.3 0 .7.1.9.1.2 0 .3.1.6 0 .8-.1 1.4-.1 2.2-.1.2 0 .8.1.9.1.3 0 .9.2 1.3.3 1 .4 1.6.8 2.7 1.8 1.3 1.1 2.5 2.3 3.9 3.2 1.1.7.8.4 1.8 1.4.3.3.6.6.7 1v.1c-.1 2.8-.4 7-.3 7.9.1.2 5 .2 5.9 0-.1-.5-.2-4.1-.3-4.8-.2-1.1-.2-1.5-.2-1.9.3-1.4.6-3.4 1.5-4.3.2-.2.6-.5.6-.8.9-.5 1.3-1.4 2.2-1.8.7-.3.7-.4 1.4-.7.9-.5 2.4-1.5 3.9-2.2.2-.1.3-.2.5-.2.4-.1.8-.1 1.1-.2l2.1-.2c.8-.1 1.9-.3 2.1-.4.4-.1.9-.3 1.1-.3.4-.2.8-.3 1.2-.6.1-.1.2-.1.3-.1.2-.2 0-.3-.3-.2-.6.2-1.3.5-1.5.6-.6.1-1.3.2-2.1.3-.6.1-1.3.1-1.9.1h-.1c.2-.1.4-.3.5-.3.5-.3 1-.7 1.5-1.1.1-.1.3-.2.3-.3.1-.2-.2-.2-.4-.1-.7.5-1.8 1.1-2 1.2-.4.1-.8.2-1.1.3z"/><path class="st1" d="M160.9 6.4c-.4.4-.9.6-1.5.6-.8 0-1.6-.6-1.6-1.6s.7-1.6 1.5-1.6c.5 0 .9.1 1.4.5l.7-1.1c-.5-.5-1.3-.7-2.2-.7-1.7 0-2.8 1.3-2.8 2.9 0 1.7 1.2 2.9 3 2.9.9 0 1.7-.3 2.2-.9l-.7-1zm-10.2 1.8h1.4V2.7h-1.4v5.5zm5.2-5.5h-1.8l-2 2.7 2.2 2.8h1.8l-2.4-2.9 2.2-2.6zm-9 1.1c.8 0 1.3.5 1.3 1.2h-2.7c.1-.8.6-1.2 1.4-1.2zm1.8 2.9c-.3.3-.9.5-1.5.5-.9 0-1.5-.4-1.6-1.3h3.9c.1-.2.1-.4.1-.8 0-1.5-1.2-2.5-2.6-2.5-1.8 0-2.9 1.3-2.9 2.9 0 1.7 1.2 2.9 2.9 2.9.8 0 1.5-.2 2.1-.7l-.4-1zm-7.3 1.5h1.4V2.7h-4.1l-.1 1.7c-.1 2.1-.8 2.6-1.2 2.5l.1 1.4c1.5 0 2.2-.6 2.5-3.6v-.6h1.4v4.1zm-6.6 0h1.4V2.7h-5.1v5.5h1.4V4h2.3v4.2zm-11.4 0h1.4V4.9l1.7 2 1.6-2v3.3h1.4V2.7h-1.2L126.5 5l-1.9-2.3h-1.3v5.5zm-5.8-2.7c0-.9.7-1.6 1.5-1.6.9 0 1.5.6 1.5 1.6 0 .9-.6 1.6-1.5 1.6-.8-.1-1.5-.7-1.5-1.6zm-1.5 0c0 1.6 1.2 2.9 3 2.9s3-1.2 3-2.9c0-1.6-1.2-2.9-3-2.9s-3 1.2-3 2.9zm-5.6 2.7h1.4V2.7h-1.4v5.5zm5.2-5.5h-1.8l-2 2.7 2.2 2.8h1.8l-2.4-2.9 2.2-2.6zM101.8 0c0 1.1.5 1.9 1.9 1.9 1.2 0 1.9-.8 1.9-1.9h-1.3c0 .4-.2.9-.6.9-.5 0-.6-.4-.6-.9h-1.3zm.6 8.2l2.6-3.5v3.5h1.4V2.7H105l-2.6 3.5V2.7H101v5.5h1.4zm-7.2-2.7c0-.9.7-1.6 1.5-1.6.9 0 1.5.6 1.5 1.6 0 .9-.6 1.6-1.5 1.6-.8-.1-1.5-.7-1.5-1.6zm-1.5 0c0 1.6 1.2 2.9 3 2.9s3-1.2 3-2.9c0-1.6-1.2-2.9-3-2.9s-3 1.2-3 2.9zm-2.6 2.7h1.4V2.7h-4.1l-.1 1.7c-.2 2.1-.8 2.6-1.3 2.5l.1 1.4c1.5 0 2.2-.6 2.5-3.6v-.6H91v4.1zm-9.2 0l2.6-3.5v3.5h1.4V2.7h-1.4l-2.6 3.5V2.7h-1.4v5.5h1.4zm-8.8-2.8l-1.9 2.8h1.7l1.8-2.8L73 2.7h-1.7l1.8 2.7zm1.6 2.8h1.4V2.7h-1.4v5.5zm4.8-5.5h-1.7l-1.7 2.6L78 8.2h1.7l-2-2.8 1.8-2.7zM116.5 57.4c-1 1.1-2.4 1.9-4.1 1.9-2.4 0-4.6-1.7-4.6-4.5s2.1-4.5 4.4-4.5h.7c.1 1.3 1.3 2.4 2.6 2.4 1.5 0 2.7-1.2 2.7-2.7 0-.9-.5-1.7-1.2-2.2h-.1c-1.4-.9-3.2-1.3-5.2-1.3-4.8 0-8.2 3.7-8.2 8.3 0 5 3.4 8.3 8.6 8.3 2.6 0 5-1 6.3-2.7l-1.9-3zm-16.5.9c-.9.7-2.5 1.4-4.5 1.4-2.5 0-4.4-1.3-4.8-3.7h11.4c.2-.6.2-1.2.2-2.2 0-4.4-3.4-7.4-7.5-7.4-5.2 0-8.4 3.7-8.4 8.3 0 5 3.4 8.3 8.5 8.3 2.2 0 4.5-.6 6.1-2l-1-2.7zm-5.2-8.4c2.3 0 3.7 1.5 3.6 3.4l-7.8.3v-.3c.5-2.1 1.8-3.4 4.2-3.4zM80.1 62.7h4V46.9h-12l-.2 4.9c-.4 6.1-2.2 7.4-3.6 7.3l.4 3.9c4.3 0 6.4-1.8 7.1-10.4l.1-1.7h4.2v11.8zM91 38.8h4V22.9h-4v15.9zm6.7-8.2l3.7 8.2h5.3l-5.1-10.4L106 23h-5.1l-5.7 7.8 2.5-.2zm15.6 5c-1.3 0-2.3-.7-2.3-1.9 0-1.3 1.2-2 2.5-2 1.2 0 2.1.2 2.8.8v1.6c-.5.7-1.3 1.5-3 1.5zm-4.1-8.6c1.2-.5 2.3-1.1 4.2-1.1 2.4 0 3.1 1.4 3 4.1-.8-.6-2.2-1-3.6-1-3.2 0-5.8 1.7-5.8 5.1 0 3.1 2.1 4.9 5 4.9 2.1 0 3.8-.8 4.7-2v1.8h3.5v-9.6c0-4.2-1.7-6.6-6.3-6.6-2.1 0-4.2.7-5.6 1.5l.9 2.9zm19.6 12.2c4.3 0 7.2-1.8 7.2-4.8 0-1.8-1.1-3.3-3.3-3.7v-.1c1.9-.6 2.9-2 2.9-3.5 0-2.7-2.1-4.5-6.3-4.5-3 0-5.4 1-6.8 2.7l1.7 2.4c1-.8 2.5-1.8 4.3-1.8 1.8 0 2.8.6 2.8 1.7 0 1-.8 1.9-2.1 1.9h-2.8v2.7h3c1.5 0 2.4.7 2.4 1.8s-1.1 1.9-3.2 1.9c-1.5 0-3.5-.9-4.5-1.9l-2.1 2.5c1 1.5 3.9 2.7 6.8 2.7zm13.2-8.3c0-2.7 1.9-4.5 4.3-4.5 2.5 0 4.3 1.8 4.3 4.5s-1.8 4.5-4.3 4.5-4.3-1.9-4.3-4.5zm-4.3 0c0 4.8 3.4 8.3 8.6 8.3 5.2 0 8.6-3.6 8.6-8.3 0-4.8-3.4-8.3-8.6-8.3-5.2 0-8.6 3.5-8.6 8.3zm32.4-8h-4v6.9c-.6.4-1.8.6-2.8.6-1.6 0-2.6-1-2.6-2.9v-4.6h-4.3V28c0 4 1.7 6.2 5.7 6.2 1.5 0 3-.4 3.9-.9v5.5h4V22.9zm14.4 15.9h4V22.9h-4v6l-6.9.3v-6.3h-4v15.8h4v-6.1h6.9v6.2zm13.1-8.3c2.2 0 3 1 3 2.4s-.9 2.4-3.1 2.4H196v-4.8h1.6zm9.6 8.3h4V22.9h-4v15.9zm-15.3 0h5.7c5.4 0 7.3-3 7.3-6 0-2.8-1.6-5.5-7-5.5h-2V23h-4v15.8zM217 15c0 3.1 1.6 5.5 5.5 5.5 3.6 0 5.4-2.4 5.4-5.5h-3.7c0 1.3-.5 2.6-1.7 2.6-1.3 0-1.8-1.3-1.8-2.6H217zm1.7 23.8l7.4-10v10h4V22.9h-4l-7.4 10v-10h-4v15.8h4zM87.3 33.2c-1.7 1.3-3.8 2-5.8 2-5 0-8.5-3.5-8.5-8.7 0-5.4 3.4-8.7 8-8.7h.9c0 1.8 1.4 3.2 3.2 3.2 1.8 0 3.2-1.4 3.2-3.2 0-1.8-1.3-2.8-2.8-3.3-1.3-.5-2.8-.8-4.5-.8-8.1 0-12.6 5.6-12.6 12.7 0 7.7 5.2 12.7 12.7 12.7 3.2 0 6.3-1.1 7.9-2.8l-1.7-3.1z"/></svg>